<?xml version="1.0" encoding="UTF-8"?>
<!DOCTYPE svg PUBLIC "-//W3C//DTD SVG 1.1//EN" "http://www.w3.org/Graphics/SVG/1.1/DTD/svg11.dtd">
<!-- Creator: CorelDRAW 2018 (64-Bit) -->
<svg xmlns="http://www.w3.org/2000/svg" xml:space="preserve" width="239.151mm" height="94.36mm" version="1.1" style="shape-rendering:geometricPrecision; text-rendering:geometricPrecision; image-rendering:optimizeQuality; fill-rule:evenodd; clip-rule:evenodd"
viewBox="0 0 9079.54 3582.45"
 xmlns:xlink="http://www.w3.org/1999/xlink">
 <defs>
  <style type="text/css">
   <![CDATA[
    .fil3 {fill:#50AFE1}
    .fil1 {fill:#38264C}
    .fil0 {fill:#2077B0}
    .fil2 {fill:#FEFEFE;fill-rule:nonzero}
   ]]>
  </style>
 </defs>
 <g id="Layer_x0020_1">
  <metadata id="CorelCorpID_0Corel-Layer"/>
  <g id="_1832247024">
   <g>
    <path class="fil0" d="M8595.98 762.6l-8112.43 0c-203.31,0 -369.66,166.34 -369.66,369.66l0 1317.92c0,203.31 166.34,369.66 369.66,369.66l8112.43 0c203.31,0 369.66,-166.34 369.66,-369.66l0 -1317.92c0,-203.31 -166.34,-369.66 -369.66,-369.66z"/>
    <path id="1" class="fil1" d="M8595.98 762.6l-8112.43 0c-203.31,0 -369.66,166.34 -369.66,369.66l0 1317.92c0,203.31 166.34,369.66 369.66,369.66l8112.43 0c203.31,0 369.66,-166.34 369.66,-369.66l0 -1317.92c0,-203.31 -166.34,-369.66 -369.66,-369.66zm-8112.43 -113.9l8112.43 0c133.09,0 254.01,54.37 341.6,141.95 87.58,87.59 141.95,208.51 141.95,341.6l0 1317.92c0,133.1 -54.37,254.02 -141.95,341.6 -87.59,87.59 -208.5,141.95 -341.6,141.95l-8112.43 0c-133.1,0 -254.02,-54.37 -341.6,-141.95 -87.59,-87.58 -141.95,-208.5 -141.95,-341.6l0 -1317.92c0,-133.1 54.37,-254.01 141.95,-341.6 87.58,-87.58 208.5,-141.95 341.6,-141.95z"/>
   </g>
   <polygon class="fil2" points="608.55,2497.03 608.55,1087.93 1421.89,1087.93 1421.89,1207.9 746.82,1207.9 746.82,1697.93 1348.69,1697.93 1348.69,1815.86 746.82,1815.86 746.82,2377.06 1474.76,2377.06 1474.76,2497.03 "/>
   <path id="1" class="fil2" d="M2371.46 2293.7c-13.56,-33.89 -32.87,-78.62 -58.29,-134.2 -25.08,-55.58 -53.21,-116.24 -84.72,-181.98 -31.18,-65.75 -63.37,-133.53 -95.91,-203.33 -32.87,-69.81 -64.05,-135.22 -93.87,-196.22 -30.16,-61 -56.59,-114.55 -79.64,-160.63 -23.38,-46.09 -40.33,-78.62 -51.17,-97.6 -17.62,169.44 -31.52,353.46 -41.68,552.05 -10.17,198.59 -19.32,407 -27.45,625.25l-136.23 0c12.2,-256.2 26.09,-501.56 41.68,-736.07 15.59,-234.51 34.91,-458.85 57.95,-673.03l122 0c40.67,67.78 84.38,146.06 130.47,234.85 46.09,88.79 91.84,180.97 137.59,276.53 45.41,95.57 89.47,189.78 132.17,282.64 43.04,92.86 80.65,176.56 113.19,251.12 32.53,-74.56 70.15,-158.26 113.19,-251.12 42.7,-92.86 86.76,-187.07 132.17,-282.64 45.75,-95.56 91.5,-187.74 137.59,-276.53 46.43,-88.79 89.81,-167.07 130.47,-234.85l115.9 0c23.05,214.18 42.36,438.52 57.95,673.03 15.59,234.51 29.48,479.87 41.68,736.07l-140.3 0c-8.13,-218.25 -17.28,-426.66 -27.45,-625.25 -10.17,-198.59 -24.06,-382.61 -41.68,-552.05 -10.84,18.98 -27.79,51.51 -50.83,97.6 -23.05,46.09 -49.48,99.63 -79.3,160.63 -29.82,61 -61,126.41 -93.53,196.22 -32.53,69.81 -64.39,137.59 -95.57,203.33 -31.18,65.74 -59.3,126.4 -84.38,181.98 -25.08,55.58 -44.39,100.31 -57.95,134.2l-124.03 0z"/>
   <g>
    <path class="fil3" d="M5272.76 151.86c905.4,0 1639.36,733.96 1639.36,1639.36 0,905.4 -733.96,1639.36 -1639.36,1639.36 -905.4,0 -1639.36,-733.96 -1639.36,-1639.36 0,-905.4 733.96,-1639.36 1639.36,-1639.36z"/>
    <path id="1" class="fil1" d="M5272.76 0c494.61,0 942.42,200.5 1266.57,524.65 324.15,324.16 524.65,771.96 524.65,1266.57 0,494.62 -200.5,942.42 -524.65,1266.57 -324.16,324.15 -771.96,524.65 -1266.57,524.65 -494.62,0 -942.42,-200.5 -1266.57,-524.65 -324.15,-324.15 -524.65,-771.96 -524.65,-1266.57 0,-494.61 200.5,-942.42 524.65,-1266.57 324.15,-324.15 771.96,-524.65 1266.57,-524.65zm0 151.86c905.4,0 1639.36,733.96 1639.36,1639.36 0,905.4 -733.96,1639.36 -1639.36,1639.36 -905.4,0 -1639.36,-733.96 -1639.36,-1639.36 0,-905.4 733.96,-1639.36 1639.36,-1639.36z"/>
   </g>
   <g>
    <path class="fil1" d="M5834.2 1416.99c-53.16,-364.35 -214.81,-560.09 -392.1,-657.13 -42.38,45.1 -102.56,73.28 -169.33,73.28 -99.57,0 -184.5,-62.64 -217.56,-150.66 -168.12,20 -356.43,114.44 -524.43,358.57 427.77,-138.07 862.47,-3.74 1303.42,375.94zm-561.44 -1021.47c113.38,0 205.28,91.91 205.28,205.28 0,113.38 -91.91,205.28 -205.28,205.28 -113.37,0 -205.28,-91.91 -205.28,-205.28 0,-113.38 91.91,-205.28 205.28,-205.28z"/>
    <path class="fil1" d="M5229.38 1117.89c-342.11,-136.14 -592.46,-94.01 -765.14,11.01 17.87,59.25 12.18,125.46 -21.21,183.29 -49.79,86.23 -146.5,128.46 -239.26,113.08 -66.74,155.59 -79.11,365.89 48.32,633.45 94.31,-439.49 428,-748.79 977.28,-940.83zm-1165.34 -24.51c56.69,-98.19 182.24,-131.83 280.42,-75.14 98.19,56.69 131.83,182.24 75.14,280.42 -56.69,98.19 -182.24,131.83 -280.42,75.14 -98.19,-56.69 -131.83,-182.24 -75.14,-280.42z"/>
    <path class="fil1" d="M4667.94 1492.12c-288.96,228.21 -377.65,466.07 -373.04,668.14 60.25,14.15 114.74,52.18 148.13,110.01 49.78,86.23 38,191.1 -21.7,263.74 101.38,135.59 277.32,251.46 572.75,274.88 -333.45,-301.42 -434.47,-745.05 -326.14,-1316.77zm-603.9 996.95c-56.69,-98.18 -23.05,-223.73 75.14,-280.42 98.18,-56.69 223.73,-23.05 280.42,75.14 56.69,98.18 23.05,223.73 -75.14,280.42 -98.18,56.69 -223.73,23.05 -280.42,-75.14z"/>
    <path class="fil1" d="M4711.32 2165.46c53.16,364.35 214.81,560.09 392.1,657.13 42.38,-45.1 102.56,-73.28 169.33,-73.28 99.57,0 184.5,62.64 217.56,150.66 168.12,-20 356.43,-114.44 524.43,-358.57 -427.77,138.07 -862.47,3.74 -1303.42,-375.94zm561.44 1021.47c-113.37,0 -205.28,-91.91 -205.28,-205.28 0,-113.38 91.91,-205.28 205.28,-205.28 113.38,0 205.28,91.91 205.28,205.28 0,113.38 -91.91,205.28 -205.28,205.28z"/>
    <path class="fil1" d="M5316.14 2464.56c342.12,136.14 592.46,94.02 765.14,-11.01 -17.87,-59.25 -12.18,-125.46 21.21,-183.29 49.78,-86.23 146.5,-128.46 239.25,-113.08 66.74,-155.59 79.11,-365.89 -48.32,-633.45 -94.31,439.49 -428,748.79 -977.29,940.83zm1165.34 24.51c-56.69,98.19 -182.24,131.83 -280.42,75.14 -98.19,-56.69 -131.83,-182.24 -75.14,-280.42 56.69,-98.19 182.24,-131.83 280.42,-75.14 98.19,56.69 131.83,182.24 75.14,280.42z"/>
    <path class="fil1" d="M5877.58 2090.33c288.96,-228.21 377.65,-466.07 373.04,-668.14 -60.25,-14.15 -114.74,-52.18 -148.13,-110.01 -49.79,-86.23 -38,-191.1 21.7,-263.74 -101.38,-135.59 -277.32,-251.46 -572.75,-274.88 333.45,301.43 434.47,745.05 326.14,1316.77zm603.9 -996.95c56.69,98.18 23.05,223.73 -75.14,280.42 -98.18,56.69 -223.73,23.05 -280.42,-75.14 -56.69,-98.18 -23.05,-223.73 75.14,-280.42 98.18,-56.69 223.73,-23.05 280.42,75.14z"/>
   </g>
   <path class="fil2" d="M7555.51 1376.66c81.67,-28.47 154.19,-64.73 218.25,-108.78 63.71,-44.06 127.08,-104.04 189.44,-179.95l93.54 0 0 1409.1 -132.17 0 0 -1207.8c-14.91,16.26 -34.23,33.21 -57.95,50.83 -24.06,17.62 -50.84,34.91 -80.66,51.85 -29.82,16.94 -61.34,33.21 -93.87,48.8 -32.53,15.59 -65.07,28.13 -97.94,37.62l-38.63 -101.67z"/>
  </g>
 </g>
</svg>
