<?xml version="1.0" encoding="UTF-8"?>
<!DOCTYPE svg PUBLIC "-//W3C//DTD SVG 1.1//EN" "http://www.w3.org/Graphics/SVG/1.1/DTD/svg11.dtd">
<!-- Creator: CorelDRAW 2018 (64-Bit) -->
<svg xmlns="http://www.w3.org/2000/svg" xml:space="preserve" width="297mm" height="106mm" version="1.1" style="shape-rendering:geometricPrecision; text-rendering:geometricPrecision; image-rendering:optimizeQuality; fill-rule:evenodd; clip-rule:evenodd"
viewBox="0 0 29700 10600"
 xmlns:xlink="http://www.w3.org/1999/xlink">
 <defs>
  <style type="text/css">
   <![CDATA[
    .fil3 {fill:#50AFE1}
    .fil4 {fill:#38264C}
    .fil0 {fill:#38264C}
    .fil1 {fill:#2077B0}
    .fil2 {fill:#FEFEFE;fill-rule:nonzero}
   ]]>
  </style>
 </defs>
 <g id="Layer_x0020_1">
  <metadata id="CorelCorpID_0Corel-Layer"/>
  <path class="fil0" d="M2483.36 2290.66l24733.27 0c350.57,0 669.07,143.2 899.76,373.9 230.7,230.69 373.9,549.19 373.9,899.76l0 3471.35c0,350.57 -143.2,669.07 -373.9,899.76 -230.69,230.7 -549.19,373.9 -899.76,373.9l-24733.27 0c-350.57,0 -669.07,-143.2 -899.76,-373.9 -230.7,-230.69 -373.9,-549.19 -373.9,-899.76l0 -3471.35c0,-350.57 143.2,-669.07 373.9,-899.76 230.69,-230.7 549.19,-373.9 899.76,-373.9z"/>
  <rect class="fil1" x="1509.7" y="2590.65" width="26680.59" height="5418.67" rx="994.57" ry="973.66"/>
  <polygon class="fil2" points="4687.82,6843.07 4687.82,7159.06 2577.67,7159.06 2577.67,3447.55 2941.86,3447.55 2941.86,6843.07 "/>
  <path id="1" class="fil2" d="M7226.43 4368.74c0,139.24 -24.99,270.46 -74.98,393.64 -49.98,123.18 -116.93,241.9 -200.84,356.15 -83.9,114.26 -179.41,224.94 -286.53,332.06 -107.11,107.11 -216.01,214.23 -326.69,321.34 -92.84,89.26 -182.99,179.42 -270.47,270.46 -87.47,91.05 -166.02,182.1 -235.65,273.15 -69.62,91.04 -124.97,180.3 -166.03,267.78 -41.06,87.48 -61.59,174.06 -61.59,259.75l0 10.71 1751.32 0 0 305.28 -2136.93 0c0,-7.14 -0.89,-20.53 -2.68,-40.17 -1.78,-19.64 -2.67,-49.09 -2.67,-88.37 0,-167.81 30.35,-324.02 91.04,-468.62 60.7,-144.61 138.36,-281.18 232.98,-409.71 94.61,-128.54 199.94,-248.15 315.98,-357.94 116.04,-110.69 227.62,-216.91 334.74,-320.45 89.26,-84.8 174.06,-167.82 254.39,-248.15 80.34,-79.44 150.85,-162.46 211.55,-248.15 60.7,-86.58 108.9,-177.63 144.61,-274.03 35.7,-96.41 53.55,-202.63 53.55,-316.88 0,-250.83 -66.94,-430.24 -200.84,-540.04 -133.89,-108.9 -302.59,-163.35 -506.11,-163.35 -114.25,0 -216.01,14.29 -305.28,42.85 -89.26,28.56 -166.91,61.59 -232.97,99.08 -66.05,37.49 -122.29,75.87 -168.7,115.15 -46.42,39.27 -80.34,69.62 -101.76,91.05l-182.1 -241.01c21.43,-24.99 59.81,-61.59 115.15,-109.79 55.34,-48.2 124.97,-95.51 208.87,-141.93 83.91,-46.42 181.21,-86.58 291.89,-120.5 110.69,-33.92 233.87,-50.88 369.54,-50.88 360.62,0 631.98,88.37 814.07,265.11 182.1,176.73 273.14,422.2 273.14,736.41z"/>
  <path class="fil0" d="M12814.36 582c1302.79,0 2482.3,528.1 3336.1,1381.9 853.8,853.8 1381.9,2033.3 1381.9,3336.1 0,1302.8 -528.1,2482.3 -1381.9,3336.1 -853.8,853.8 -2033.31,1381.9 -3336.1,1381.9 -1302.8,0 -2482.3,-528.1 -3336.1,-1381.9 -853.8,-853.8 -1381.9,-2033.3 -1381.9,-3336.1 0,-1302.8 528.1,-2482.3 1381.9,-3336.1 853.8,-853.8 2033.3,-1381.9 3336.1,-1381.9z"/>
  <circle class="fil3" cx="12814.36" cy="5300" r="4318"/>
  <polygon class="fil2" points="18195.82,4808.16 18195.82,3701.53 18943.15,3701.53 18943.15,3910.72 18444.93,3910.72 18444.93,4127.89 18887.26,4127.89 18887.26,4332.29 18444.93,4332.29 18444.93,4598.97 18979.88,4598.97 18979.88,4808.16 "/>
  <path id="1" class="fil2" d="M19147.55 3996.95c40.45,-11.71 92.62,-22.62 156.49,-32.74 63.88,-10.11 130.95,-15.17 201.21,-15.17 71.33,0 130.68,9.32 178.05,27.95 47.37,18.63 84.9,44.98 112.58,79.04 27.68,34.07 47.37,74.52 59.08,121.37 11.71,46.84 17.57,99 17.57,156.49l0 474.27 -237.93 0 0 -445.53c0,-76.65 -10.12,-130.94 -30.34,-162.88 -20.23,-31.93 -58.02,-47.9 -113.38,-47.9 -17.04,0 -35.13,0.79 -54.3,2.39 -19.16,1.6 -36.19,3.46 -51.1,5.59l0 648.33 -237.93 0 0 -811.21z"/>
  <path id="2" class="fil2" d="M20290.91 4361.04c0,133.07 53.76,199.61 161.29,199.61 24.48,0 47.37,-3.2 68.66,-9.59 21.29,-6.38 39.39,-13.84 54.3,-22.35l0 -380.06c-11.71,-2.13 -25.55,-3.99 -41.52,-5.59 -15.97,-1.59 -34.6,-2.39 -55.89,-2.39 -62.81,0 -109.65,20.76 -140.53,62.28 -30.87,41.51 -46.31,94.21 -46.31,158.09zm522.18 341.73c0,137.33 -34.87,239.26 -104.6,305.8 -69.73,66.53 -177.51,99.8 -323.36,99.8 -51.1,0 -102.2,-4.52 -153.3,-13.57 -51.1,-9.05 -98.47,-21.03 -142.12,-35.93l41.52 -199.61c37.26,14.9 76.38,26.61 117.37,35.13 40.98,8.52 87.56,12.78 139.72,12.78 68.14,0 116.31,-14.91 144.52,-44.72 28.21,-29.8 42.32,-68.13 42.32,-114.97l0 -30.34c-25.55,11.71 -51.9,20.49 -79.05,26.35 -27.15,5.85 -56.69,8.78 -88.63,8.78 -116.03,0 -204.93,-34.33 -266.67,-103 -61.75,-68.66 -92.62,-164.74 -92.62,-288.23 0,-61.75 9.58,-117.91 28.74,-168.47 19.17,-50.57 47.11,-93.95 83.84,-130.15 36.73,-36.19 81.71,-64.14 134.93,-83.83 53.23,-19.7 113.38,-29.55 180.45,-29.55 28.74,0 58.29,1.33 88.63,4 30.34,2.66 60.41,6.12 90.22,10.38 29.81,4.25 58.29,9.31 85.43,15.17 27.15,5.85 51.37,11.97 72.66,18.36l0 705.82z"/>
  <path id="3" class="fil2" d="M21357.62 4642.09c23.42,0 45.78,-0.54 67.07,-1.6 21.29,-1.07 38.33,-2.66 51.1,-4.79l0 -180.45c-9.58,-2.13 -23.95,-4.26 -43.12,-6.39 -19.16,-2.12 -36.72,-3.19 -52.69,-3.19 -22.36,0 -43.38,1.33 -63.08,3.99 -19.69,2.66 -36.99,7.72 -51.9,15.17 -14.9,7.45 -26.61,17.57 -35.13,30.34 -8.51,12.78 -12.77,28.75 -12.77,47.91 0,37.26 12.51,63.08 37.52,77.45 25.02,14.37 59.35,21.56 103,21.56zm-19.16 -696.24c70.26,0 128.81,7.98 175.66,23.95 46.84,15.97 84.36,38.86 112.57,68.67 28.22,29.81 48.18,66 59.89,108.59 11.71,42.58 17.56,89.95 17.56,142.12l0 495.03c-34.06,7.45 -81.44,16.23 -142.12,26.35 -60.68,10.11 -134.14,15.17 -220.37,15.17 -54.29,0 -103.53,-4.8 -147.71,-14.38 -44.18,-9.58 -82.24,-25.28 -114.17,-47.1 -31.94,-21.83 -56.43,-50.31 -73.46,-85.44 -17.03,-35.13 -25.55,-78.24 -25.55,-129.34 0,-48.97 9.85,-90.49 29.54,-124.56 19.7,-34.07 46.05,-61.21 79.05,-81.44 33,-20.23 70.79,-34.86 113.38,-43.91 42.58,-9.05 86.76,-13.58 132.54,-13.58 30.87,0 58.28,1.33 82.23,4 23.96,2.66 43.39,6.12 58.29,10.38l0 -22.36c0,-40.45 -12.24,-72.92 -36.73,-97.41 -24.48,-24.49 -67.07,-36.73 -127.75,-36.73 -40.45,0 -80.37,2.93 -119.76,8.78 -39.39,5.86 -73.46,14.11 -102.2,24.76l-30.34 -191.63c13.84,-4.26 31.14,-8.78 51.9,-13.57 20.75,-4.79 43.38,-9.05 67.86,-12.78 24.49,-3.72 50.3,-6.92 77.45,-9.58 27.15,-2.66 54.56,-3.99 82.24,-3.99z"/>
  <path id="4" class="fil2" d="M22122.52 4361.04c0,133.07 53.76,199.61 161.29,199.61 24.48,0 47.37,-3.2 68.66,-9.59 21.29,-6.38 39.39,-13.84 54.3,-22.35l0 -380.06c-11.71,-2.13 -25.55,-3.99 -41.52,-5.59 -15.97,-1.59 -34.6,-2.39 -55.89,-2.39 -62.81,0 -109.65,20.76 -140.53,62.28 -30.87,41.51 -46.31,94.21 -46.31,158.09zm522.18 341.73c0,137.33 -34.87,239.26 -104.6,305.8 -69.73,66.53 -177.51,99.8 -323.36,99.8 -51.1,0 -102.2,-4.52 -153.3,-13.57 -51.1,-9.05 -98.47,-21.03 -142.12,-35.93l41.52 -199.61c37.26,14.9 76.38,26.61 117.37,35.13 40.98,8.52 87.56,12.78 139.72,12.78 68.14,0 116.31,-14.91 144.52,-44.72 28.21,-29.8 42.32,-68.13 42.32,-114.97l0 -30.34c-25.55,11.71 -51.9,20.49 -79.05,26.35 -27.15,5.85 -56.69,8.78 -88.63,8.78 -116.03,0 -204.93,-34.33 -266.67,-103 -61.75,-68.66 -92.62,-164.74 -92.62,-288.23 0,-61.75 9.58,-117.91 28.74,-168.47 19.17,-50.57 47.11,-93.95 83.84,-130.15 36.73,-36.19 81.71,-64.14 134.93,-83.83 53.23,-19.7 113.38,-29.55 180.45,-29.55 28.74,0 58.29,1.33 88.63,4 30.34,2.66 60.41,6.12 90.22,10.38 29.81,4.25 58.29,9.31 85.43,15.17 27.15,5.85 51.37,11.97 72.66,18.36l0 705.82z"/>
  <path id="5" class="fil2" d="M22828.34 4394.57c0,-74.52 11.44,-139.73 34.33,-195.62 22.89,-55.89 52.96,-102.46 90.23,-139.72 37.26,-37.26 80.1,-65.47 128.54,-84.64 48.44,-19.16 98.21,-28.74 149.31,-28.74 119.23,0 213.45,36.46 282.65,109.39 69.19,72.92 103.79,180.18 103.79,321.77 0,13.83 -0.53,29 -1.59,45.51 -1.07,16.5 -2.13,31.13 -3.2,43.91l-539.74 0c5.32,48.97 28.21,87.83 68.67,116.57 40.45,28.74 94.74,43.12 162.88,43.12 43.64,0 86.49,-4 128.54,-11.98 42.06,-7.98 76.39,-17.83 103,-29.54l31.94 193.22c-12.77,6.39 -29.81,12.77 -51.1,19.16 -21.29,6.39 -44.98,11.98 -71.06,16.77 -26.08,4.79 -54.03,8.78 -83.84,11.98 -29.8,3.19 -59.61,4.79 -89.42,4.79 -75.59,0 -141.32,-11.18 -197.21,-33.54 -55.89,-22.35 -102.2,-52.96 -138.93,-91.82 -36.73,-38.86 -63.88,-84.9 -81.44,-138.13 -17.57,-53.23 -26.35,-110.71 -26.35,-172.46zm558.9 -91.02c-1.06,-20.23 -4.52,-39.92 -10.38,-59.09 -5.85,-19.16 -14.9,-36.19 -27.14,-51.09 -12.25,-14.91 -27.68,-27.15 -46.31,-36.73 -18.63,-9.58 -41.79,-14.37 -69.47,-14.37 -26.61,0 -49.5,4.52 -68.66,13.57 -19.16,9.05 -35.13,21.02 -47.91,35.93 -12.77,14.9 -22.62,32.2 -29.54,51.9 -6.92,19.69 -11.98,39.65 -15.17,59.88l314.58 0z"/>
  <path id="6" class="fil2" d="M24262.33 4362.63c0,-76.65 -9.85,-130.94 -29.55,-162.88 -19.69,-31.93 -53.49,-47.9 -101.4,-47.9 -14.9,0 -30.34,0.79 -46.31,2.39 -15.96,1.6 -31.4,3.46 -46.31,5.59l0 648.33 -237.93 0 0 -811.21c20.23,-5.32 43.91,-10.91 71.06,-16.77 27.15,-5.85 55.89,-11.18 86.23,-15.97 30.34,-4.79 61.48,-8.51 93.42,-11.17 31.94,-2.67 63.34,-4 94.21,-4 60.69,0 109.92,7.72 147.72,23.16 37.79,15.43 68.93,33.8 93.41,55.09 34.07,-24.48 73.19,-43.65 117.37,-57.49 44.18,-13.84 84.9,-20.76 122.16,-20.76 67.07,0 122.16,9.32 165.28,27.95 43.11,18.63 77.45,44.98 103,79.04 25.55,34.07 43.11,74.52 52.69,121.37 9.58,46.84 14.38,99 14.38,156.49l0 474.27 -237.94 0 0 -445.53c0,-76.65 -9.85,-130.94 -29.54,-162.88 -19.7,-31.93 -53.5,-47.9 -101.4,-47.9 -12.78,0 -30.61,3.19 -53.5,9.58 -22.89,6.39 -41.78,14.37 -56.69,23.95 7.46,24.49 12.25,50.3 14.38,77.45 2.13,27.15 3.19,56.16 3.19,87.03l0 458.3 -237.93 0 0 -445.53z"/>
  <path id="7" class="fil2" d="M25137.41 4394.57c0,-74.52 11.44,-139.73 34.33,-195.62 22.89,-55.89 52.96,-102.46 90.23,-139.72 37.26,-37.26 80.1,-65.47 128.54,-84.64 48.44,-19.16 98.21,-28.74 149.31,-28.74 119.23,0 213.45,36.46 282.65,109.39 69.19,72.92 103.79,180.18 103.79,321.77 0,13.83 -0.53,29 -1.59,45.51 -1.07,16.5 -2.13,31.13 -3.2,43.91l-539.74 0c5.32,48.97 28.21,87.83 68.67,116.57 40.45,28.74 94.74,43.12 162.88,43.12 43.64,0 86.49,-4 128.54,-11.98 42.06,-7.98 76.39,-17.83 103,-29.54l31.94 193.22c-12.77,6.39 -29.81,12.77 -51.1,19.16 -21.29,6.39 -44.98,11.98 -71.06,16.77 -26.08,4.79 -54.03,8.78 -83.84,11.98 -29.8,3.19 -59.61,4.79 -89.42,4.79 -75.59,0 -141.32,-11.18 -197.21,-33.54 -55.89,-22.35 -102.2,-52.96 -138.93,-91.82 -36.73,-38.86 -63.88,-84.9 -81.44,-138.13 -17.57,-53.23 -26.35,-110.71 -26.35,-172.46zm558.9 -91.02c-1.06,-20.23 -4.52,-39.92 -10.38,-59.09 -5.85,-19.16 -14.9,-36.19 -27.14,-51.09 -12.25,-14.91 -27.68,-27.15 -46.31,-36.73 -18.63,-9.58 -41.79,-14.37 -69.47,-14.37 -26.61,0 -49.5,4.52 -68.66,13.57 -19.16,9.05 -35.13,21.02 -47.91,35.93 -12.77,14.9 -22.62,32.2 -29.54,51.9 -6.92,19.69 -11.98,39.65 -15.17,59.88l314.58 0z"/>
  <path id="8" class="fil2" d="M26109.9 3996.95c40.45,-11.71 92.62,-22.62 156.49,-32.74 63.88,-10.11 130.95,-15.17 201.21,-15.17 71.33,0 130.68,9.32 178.05,27.95 47.37,18.63 84.9,44.98 112.58,79.04 27.68,34.07 47.37,74.52 59.08,121.37 11.71,46.84 17.57,99 17.57,156.49l0 474.27 -237.93 0 0 -445.53c0,-76.65 -10.12,-130.94 -30.34,-162.88 -20.23,-31.93 -58.02,-47.9 -113.38,-47.9 -17.04,0 -35.13,0.79 -54.3,2.39 -19.16,1.6 -36.19,3.46 -51.1,5.59l0 648.33 -237.93 0 0 -811.21z"/>
  <path id="9" class="fil2" d="M27042.48 3759.02l237.93 -38.33 0 247.52 285.84 0 0 198.01 -285.84 0 0 295.42c0,50.03 8.78,89.96 26.35,119.76 17.56,29.81 52.96,44.72 106.19,44.72 25.55,0 51.9,-2.4 79.05,-7.19 27.14,-4.79 51.89,-11.44 74.25,-19.96l33.53 185.24c-28.74,11.71 -60.68,21.82 -95.81,30.34 -35.13,8.51 -78.24,12.77 -129.34,12.77 -64.94,0 -118.71,-8.78 -161.29,-26.35 -42.58,-17.56 -76.65,-42.05 -102.2,-73.45 -25.55,-31.41 -43.38,-69.47 -53.49,-114.18 -10.12,-44.71 -15.17,-94.21 -15.17,-148.51l0 -705.81z"/>
  <path id="10" class="fil2" d="M19932.41 5491.62c19.17,35.13 41.26,78.51 66.54,130.14 25.02,51.64 51.1,107.53 78.25,167.68 27.41,60.14 54.29,121.62 80.9,184.43 26.89,62.81 51.9,121.9 75.32,177.26 23.42,-55.36 48.71,-114.45 75.32,-177.26 26.62,-62.81 53.5,-124.29 80.91,-184.43 27.15,-60.15 53.23,-116.04 78.25,-167.68 25.28,-51.63 47.37,-95.01 66.53,-130.14l226.76 0c10.65,73.46 20.49,155.69 29.54,246.72 9.05,91.02 17.03,185.76 23.95,284.24 6.92,98.47 13.31,197.21 19.17,296.22 5.85,99 10.91,192.15 15.17,279.45l-242.73 0c-3.19,-107.52 -7.45,-224.63 -12.77,-351.31 -5.32,-126.69 -13.31,-254.44 -23.96,-383.25 -19.16,44.71 -40.45,94.22 -64.14,148.51 -23.42,54.29 -46.57,108.59 -69.73,162.88 -22.88,54.29 -44.97,106.19 -66.27,155.69 -21.55,49.51 -39.65,91.82 -54.56,126.96l-174.05 0c-14.91,-35.14 -33.01,-77.45 -54.56,-126.96 -21.3,-49.5 -43.39,-101.4 -66.27,-155.69 -23.16,-54.29 -46.31,-108.59 -69.73,-162.88 -23.43,-54.29 -44.98,-103.8 -64.15,-148.51 -10.64,128.81 -18.63,256.56 -23.95,383.25 -5.32,126.68 -9.58,243.79 -12.77,351.31l-242.73 0c4.26,-87.3 9.32,-180.45 15.17,-279.45 5.86,-99.01 12.25,-197.75 19.16,-296.22 6.92,-98.48 14.91,-193.22 23.96,-284.24 9.05,-91.03 18.89,-173.26 29.54,-246.72l237.93 0z"/>
  <path id="11" class="fil2" d="M21375.98 6432.18c23.42,0 45.78,-0.54 67.07,-1.6 21.29,-1.07 38.33,-2.66 51.1,-4.79l0 -180.45c-9.58,-2.13 -23.95,-4.26 -43.12,-6.39 -19.16,-2.12 -36.72,-3.19 -52.69,-3.19 -22.36,0 -43.38,1.33 -63.08,3.99 -19.69,2.66 -36.99,7.72 -51.9,15.17 -14.9,7.45 -26.61,17.57 -35.13,30.34 -8.51,12.78 -12.77,28.75 -12.77,47.91 0,37.26 12.51,63.08 37.52,77.45 25.02,14.37 59.35,21.56 103,21.56zm-19.16 -696.24c70.26,0 128.81,7.98 175.66,23.95 46.84,15.97 84.36,38.86 112.57,68.67 28.22,29.81 48.18,66 59.89,108.59 11.71,42.58 17.56,89.95 17.56,142.12l0 495.03c-34.06,7.45 -81.44,16.23 -142.12,26.35 -60.68,10.11 -134.14,15.17 -220.37,15.17 -54.29,0 -103.53,-4.8 -147.71,-14.38 -44.18,-9.58 -82.24,-25.28 -114.17,-47.1 -31.94,-21.83 -56.43,-50.31 -73.46,-85.44 -17.03,-35.13 -25.55,-78.24 -25.55,-129.34 0,-48.97 9.85,-90.49 29.54,-124.56 19.7,-34.07 46.05,-61.21 79.05,-81.44 33,-20.23 70.79,-34.86 113.38,-43.91 42.58,-9.05 86.76,-13.58 132.54,-13.58 30.87,0 58.28,1.33 82.23,4 23.96,2.66 43.39,6.12 58.29,10.38l0 -22.36c0,-40.45 -12.24,-72.92 -36.73,-97.41 -24.48,-24.49 -67.07,-36.73 -127.75,-36.73 -40.45,0 -80.37,2.93 -119.76,8.78 -39.39,5.86 -73.46,14.11 -102.2,24.76l-30.34 -191.63c13.84,-4.26 31.14,-8.78 51.9,-13.57 20.75,-4.79 43.38,-9.05 67.86,-12.78 24.49,-3.72 50.3,-6.92 77.45,-9.58 27.15,-2.66 54.56,-3.99 82.24,-3.99z"/>
  <path id="12" class="fil2" d="M21938.08 5787.04c40.45,-11.71 92.62,-22.62 156.49,-32.74 63.88,-10.11 130.95,-15.17 201.21,-15.17 71.33,0 130.68,9.32 178.05,27.95 47.37,18.63 84.9,44.98 112.58,79.04 27.68,34.07 47.37,74.52 59.08,121.37 11.71,46.84 17.57,99 17.57,156.49l0 474.27 -237.93 0 0 -445.53c0,-76.65 -10.12,-130.94 -30.34,-162.88 -20.23,-31.93 -58.02,-47.9 -113.38,-47.9 -17.04,0 -35.13,0.79 -54.3,2.39 -19.16,1.6 -36.19,3.46 -51.1,5.59l0 648.33 -237.93 0 0 -811.21z"/>
  <path id="13" class="fil2" d="M23199.61 6432.18c23.42,0 45.78,-0.54 67.07,-1.6 21.29,-1.07 38.33,-2.66 51.1,-4.79l0 -180.45c-9.58,-2.13 -23.95,-4.26 -43.12,-6.39 -19.16,-2.12 -36.72,-3.19 -52.69,-3.19 -22.36,0 -43.38,1.33 -63.08,3.99 -19.69,2.66 -36.99,7.72 -51.9,15.17 -14.9,7.45 -26.61,17.57 -35.13,30.34 -8.51,12.78 -12.77,28.75 -12.77,47.91 0,37.26 12.51,63.08 37.52,77.45 25.02,14.37 59.35,21.56 103,21.56zm-19.16 -696.24c70.26,0 128.81,7.98 175.66,23.95 46.84,15.97 84.36,38.86 112.57,68.67 28.22,29.81 48.18,66 59.89,108.59 11.71,42.58 17.56,89.95 17.56,142.12l0 495.03c-34.06,7.45 -81.44,16.23 -142.12,26.35 -60.68,10.11 -134.14,15.17 -220.37,15.17 -54.29,0 -103.53,-4.8 -147.71,-14.38 -44.18,-9.58 -82.24,-25.28 -114.17,-47.1 -31.94,-21.83 -56.43,-50.31 -73.46,-85.44 -17.03,-35.13 -25.55,-78.24 -25.55,-129.34 0,-48.97 9.85,-90.49 29.54,-124.56 19.7,-34.07 46.05,-61.21 79.05,-81.44 33,-20.23 70.79,-34.86 113.38,-43.91 42.58,-9.05 86.76,-13.58 132.54,-13.58 30.87,0 58.28,1.33 82.23,4 23.96,2.66 43.39,6.12 58.29,10.38l0 -22.36c0,-40.45 -12.24,-72.92 -36.73,-97.41 -24.48,-24.49 -67.07,-36.73 -127.75,-36.73 -40.45,0 -80.37,2.93 -119.76,8.78 -39.39,5.86 -73.46,14.11 -102.2,24.76l-30.34 -191.63c13.84,-4.26 31.14,-8.78 51.9,-13.57 20.75,-4.79 43.38,-9.05 67.86,-12.78 24.49,-3.72 50.3,-6.92 77.45,-9.58 27.15,-2.66 54.56,-3.99 82.24,-3.99z"/>
  <path id="14" class="fil2" d="M23964.51 6151.13c0,133.07 53.76,199.61 161.29,199.61 24.48,0 47.37,-3.2 68.66,-9.59 21.29,-6.38 39.39,-13.84 54.3,-22.35l0 -380.06c-11.71,-2.13 -25.55,-3.99 -41.52,-5.59 -15.97,-1.59 -34.6,-2.39 -55.89,-2.39 -62.81,0 -109.65,20.76 -140.53,62.28 -30.87,41.51 -46.31,94.21 -46.31,158.09zm522.18 341.73c0,137.33 -34.87,239.26 -104.6,305.8 -69.73,66.53 -177.51,99.8 -323.36,99.8 -51.1,0 -102.2,-4.52 -153.3,-13.57 -51.1,-9.05 -98.47,-21.03 -142.12,-35.93l41.52 -199.61c37.26,14.9 76.38,26.61 117.37,35.13 40.98,8.52 87.56,12.78 139.72,12.78 68.14,0 116.31,-14.91 144.52,-44.72 28.21,-29.8 42.32,-68.13 42.32,-114.97l0 -30.34c-25.55,11.71 -51.9,20.49 -79.05,26.35 -27.15,5.85 -56.69,8.78 -88.63,8.78 -116.03,0 -204.93,-34.33 -266.67,-103 -61.75,-68.66 -92.62,-164.74 -92.62,-288.23 0,-61.75 9.58,-117.91 28.74,-168.47 19.17,-50.57 47.11,-93.95 83.84,-130.15 36.73,-36.19 81.71,-64.14 134.93,-83.83 53.23,-19.7 113.38,-29.55 180.45,-29.55 28.74,0 58.29,1.33 88.63,4 30.34,2.66 60.41,6.12 90.22,10.38 29.81,4.25 58.29,9.31 85.43,15.17 27.15,5.85 51.37,11.97 72.66,18.36l0 705.82z"/>
  <path id="15" class="fil2" d="M24670.33 6184.66c0,-74.52 11.44,-139.73 34.33,-195.62 22.89,-55.89 52.96,-102.46 90.23,-139.72 37.26,-37.26 80.1,-65.47 128.54,-84.64 48.44,-19.16 98.21,-28.74 149.31,-28.74 119.23,0 213.45,36.46 282.65,109.39 69.19,72.92 103.79,180.18 103.79,321.77 0,13.83 -0.53,29 -1.59,45.51 -1.07,16.5 -2.13,31.13 -3.2,43.91l-539.74 0c5.32,48.97 28.21,87.83 68.67,116.57 40.45,28.74 94.74,43.12 162.88,43.12 43.64,0 86.49,-4 128.54,-11.98 42.06,-7.98 76.39,-17.83 103,-29.54l31.94 193.22c-12.77,6.39 -29.81,12.77 -51.1,19.16 -21.29,6.39 -44.98,11.98 -71.06,16.77 -26.08,4.79 -54.03,8.78 -83.84,11.98 -29.8,3.19 -59.61,4.79 -89.42,4.79 -75.59,0 -141.32,-11.18 -197.21,-33.54 -55.89,-22.35 -102.2,-52.96 -138.93,-91.82 -36.73,-38.86 -63.88,-84.9 -81.44,-138.13 -17.57,-53.23 -26.35,-110.71 -26.35,-172.46zm558.9 -91.02c-1.06,-20.23 -4.52,-39.92 -10.38,-59.09 -5.85,-19.16 -14.9,-36.19 -27.14,-51.09 -12.25,-14.91 -27.68,-27.15 -46.31,-36.73 -18.63,-9.58 -41.79,-14.37 -69.47,-14.37 -26.61,0 -49.5,4.52 -68.66,13.57 -19.16,9.05 -35.13,21.02 -47.91,35.93 -12.77,14.9 -22.62,32.2 -29.54,51.9 -6.92,19.69 -11.98,39.65 -15.17,59.88l314.58 0z"/>
  <path id="16" class="fil2" d="M26149.03 5969.08c-21.29,-5.32 -46.31,-10.91 -75.05,-16.76 -28.75,-5.86 -59.62,-8.79 -92.62,-8.79 -14.91,0 -32.74,1.33 -53.5,4 -20.76,2.66 -36.46,5.58 -47.11,8.78l0 641.94 -237.93 0 0 -795.24c42.58,-14.91 92.89,-29.01 150.91,-42.32 58.01,-13.31 122.69,-19.96 194.01,-19.96 12.78,0 28.22,0.8 46.31,2.4 18.1,1.59 36.2,3.72 54.3,6.38 18.1,2.67 36.19,5.86 54.29,9.58 18.1,3.73 33.54,8.26 46.31,13.58l-39.92 196.41z"/>
  <g id="_1034660560">
   <path class="fil4" d="M14293.16 4314.28c-140.01,-959.69 -565.79,-1475.25 -1032.78,-1730.85 -111.62,118.8 -270.15,193.01 -446.02,193.01 -262.26,0 -485.96,-164.99 -573.04,-396.83 -442.81,52.69 -938.81,301.42 -1381.32,944.46 1126.72,-363.66 2271.7,-9.85 3433.16,990.21zm-1478.8 -2690.51c298.63,0 540.71,242.08 540.71,540.71 0,298.63 -242.08,540.71 -540.71,540.71 -298.62,0 -540.71,-242.08 -540.71,-540.71 0,-298.63 242.09,-540.71 540.71,-540.71z"/>
   <path class="fil4" d="M12700.1 3526.46c-901.11,-358.59 -1560.5,-247.63 -2015.34,28.99 47.06,156.07 32.07,330.46 -55.86,482.77 -131.14,227.13 -385.88,338.36 -630.19,297.85 -175.78,409.83 -208.37,963.75 127.27,1668.49 248.42,-1157.59 1127.32,-1972.28 2574.12,-2478.1zm-3069.45 -64.57c149.32,-258.62 480.01,-347.23 738.62,-197.92 258.62,149.32 347.23,480.01 197.92,738.62 -149.32,258.62 -480.01,347.23 -738.62,197.92 -258.62,-149.32 -347.23,-480.01 -197.92,-738.62z"/>
   <path class="fil4" d="M11221.3 4512.18c-761.11,601.09 -994.71,1227.62 -982.57,1759.84 158.7,37.27 302.23,137.45 390.17,289.76 131.13,227.13 100.08,503.35 -57.16,694.68 267.04,357.15 730.45,662.33 1508.59,724.03 -878.29,-793.93 -1144.38,-1962.43 -859.03,-3468.31zm-1590.65 2625.93c-149.31,-258.61 -60.7,-589.3 197.92,-738.62 258.61,-149.31 589.3,-60.7 738.62,197.92 149.31,258.61 60.7,589.3 -197.92,738.62 -258.61,149.31 -589.3,60.7 -738.62,-197.92z"/>
   <path class="fil4" d="M11335.56 6285.72c140.01,959.69 565.79,1475.25 1032.78,1730.85 111.63,-118.8 270.15,-193.01 446.02,-193.01 262.27,0 485.96,164.99 573.04,396.83 442.81,-52.69 938.81,-301.42 1381.32,-944.46 -1126.72,363.66 -2271.7,9.85 -3433.16,-990.21zm1478.8 2690.51c-298.62,0 -540.71,-242.08 -540.71,-540.71 0,-298.63 242.09,-540.71 540.71,-540.71 298.63,0 540.71,242.08 540.71,540.71 0,298.63 -242.08,540.71 -540.71,540.71z"/>
   <path class="fil4" d="M12928.62 7073.54c901.12,358.59 1560.5,247.64 2015.34,-28.99 -47.06,-156.07 -32.07,-330.46 55.87,-482.77 131.13,-227.13 385.87,-338.36 630.18,-297.85 175.78,-409.83 208.37,-963.75 -127.26,-1668.49 -248.42,1157.59 -1127.33,1972.28 -2574.13,2478.1zm3069.45 64.57c-149.32,258.62 -480.01,347.23 -738.62,197.92 -258.62,-149.32 -347.23,-480.01 -197.92,-738.62 149.32,-258.62 480.01,-347.23 738.62,-197.92 258.62,149.32 347.23,480.01 197.92,738.62z"/>
   <path class="fil4" d="M14407.42 6087.82c761.11,-601.09 994.71,-1227.62 982.57,-1759.84 -158.69,-37.27 -302.23,-137.45 -390.16,-289.76 -131.14,-227.13 -100.09,-503.35 57.15,-694.68 -267.04,-357.15 -730.45,-662.33 -1508.59,-724.03 878.29,793.94 1144.38,1962.43 859.03,3468.31zm1590.65 -2625.93c149.31,258.61 60.7,589.3 -197.92,738.62 -258.61,149.31 -589.3,60.7 -738.62,-197.92 -149.31,-258.61 -60.7,-589.3 197.92,-738.62 258.61,-149.31 589.3,-60.7 738.62,197.92z"/>
  </g>
 </g>
</svg>
