<?xml version="1.0" encoding="UTF-8"?>
<!DOCTYPE svg PUBLIC "-//W3C//DTD SVG 1.1//EN" "http://www.w3.org/Graphics/SVG/1.1/DTD/svg11.dtd">
<!-- Creator: CorelDRAW 2018 (64-Bit) -->
<svg xmlns="http://www.w3.org/2000/svg" xml:space="preserve" width="272.806mm" height="94.36mm" version="1.1" style="shape-rendering:geometricPrecision; text-rendering:geometricPrecision; image-rendering:optimizeQuality; fill-rule:evenodd; clip-rule:evenodd"
viewBox="0 0 27280.58 9436"
 xmlns:xlink="http://www.w3.org/1999/xlink">
 <defs>
  <style type="text/css">
   <![CDATA[
    .fil3 {fill:#50AFE1}
    .fil0 {fill:#38264C}
    .fil1 {fill:#2077B0}
    .fil2 {fill:#FEFEFE;fill-rule:nonzero}
   ]]>
  </style>
 </defs>
 <g id="Layer_x0020_1">
  <metadata id="CorelCorpID_0Corel-Layer"/>
  <path class="fil0" d="M1273.66 1708.66l24733.26 0c350.57,0 669.07,143.2 899.76,373.9 230.7,230.69 373.9,549.19 373.9,899.76l0 3471.35c0,350.57 -143.2,669.07 -373.9,899.76 -230.69,230.7 -549.19,373.9 -899.76,373.9l-24733.26 0c-350.57,0 -669.07,-143.2 -899.76,-373.9 -230.7,-230.69 -373.9,-549.19 -373.9,-899.76l0 -3471.35c0,-350.57 143.2,-669.07 373.9,-899.76 230.69,-230.7 549.19,-373.9 899.76,-373.9z"/>
  <rect class="fil1" x="300" y="2008.65" width="26680.58" height="5418.67" rx="994.57" ry="973.66"/>
  <path class="fil2" d="M19617.01 4310.84c-230.51,0 -406.13,-64.1 -526.84,-192.32 -120.71,-128.21 -181.07,-310.31 -181.07,-546.28 0,-117.3 18.41,-221.99 55.24,-314.06 36.83,-92.07 87.3,-169.82 151.4,-233.24 64.11,-63.43 140.5,-111.51 229.16,-144.24 88.65,-32.74 184.82,-49.11 288.48,-49.11 60.02,0 114.58,4.44 163.68,13.3 49.1,8.87 92.07,19.1 128.9,30.69 36.82,11.6 67.51,23.53 92.07,35.81 24.55,12.27 42.28,21.82 53.19,28.64l-92.07 257.8c-43.65,-23.19 -94.45,-42.97 -152.42,-59.34 -57.97,-16.37 -123.79,-24.55 -197.44,-24.55 -49.11,0 -97.19,8.18 -144.24,24.55 -47.06,16.37 -88.66,42.63 -124.81,78.77 -36.15,36.15 -65.13,82.86 -86.95,140.15 -21.83,57.29 -32.74,126.85 -32.74,208.69 0,65.48 7.16,126.51 21.48,183.12 14.32,56.61 37.51,105.37 69.57,146.29 32.05,40.92 73.99,73.31 125.82,97.18 51.84,23.87 114.58,35.81 188.24,35.81 46.37,0 87.97,-2.73 124.8,-8.19 36.83,-5.45 69.56,-11.93 98.21,-19.43 28.64,-7.51 53.88,-16.03 75.7,-25.58 21.82,-9.55 41.6,-18.41 59.33,-26.6l87.98 255.75c-45.01,27.28 -108.44,51.83 -190.28,73.66 -81.83,21.82 -176.63,32.73 -284.39,32.73z"/>
  <path id="1" class="fil2" d="M20275.82 4282.2l0 -1538.58 304.85 -49.11 0 515.59c20.46,-6.82 46.72,-13.3 78.77,-19.44 32.06,-6.13 63.09,-9.2 93.09,-9.2 87.3,0 159.93,11.93 217.9,35.8 57.97,23.87 104.35,57.63 139.13,101.28 34.78,43.65 59.33,95.48 73.66,155.49 14.32,60.02 21.48,126.86 21.48,200.51l0 607.66 -304.85 0 0 -570.83c0,-98.21 -12.62,-167.77 -37.85,-208.69 -25.24,-40.92 -71.96,-61.38 -140.15,-61.38 -27.28,0 -52.86,2.39 -76.73,7.16 -23.87,4.77 -45.35,9.89 -64.45,15.34l0 818.4 -304.85 0z"/>
  <path id="2" class="fil2" d="M21785.76 4282.2l-304.85 0 0 -1076.19 304.85 0 0 1076.19zm28.65 -1387.18c0,55.92 -18.08,99.91 -54.22,131.97 -36.15,32.05 -78.77,48.08 -127.88,48.08 -49.1,0 -91.73,-16.03 -127.87,-48.08 -36.15,-32.06 -54.22,-76.05 -54.22,-131.97 0,-55.92 18.07,-99.91 54.22,-131.97 36.14,-32.05 78.77,-48.08 127.87,-48.08 49.11,0 91.73,16.03 127.88,48.08 36.14,32.06 54.22,76.05 54.22,131.97z"/>
  <path id="3" class="fil2" d="M22021.05 3752.29c0,-95.48 14.66,-179.03 43.99,-250.64 29.32,-71.6 67.86,-131.28 115.6,-179.02 47.74,-47.74 102.64,-83.88 164.7,-108.44 62.06,-24.55 125.83,-36.82 191.3,-36.82 152.77,0 273.48,46.71 362.14,140.15 88.66,93.43 132.99,230.85 132.99,412.26 0,17.73 -0.68,37.17 -2.05,58.31 -1.36,21.15 -2.73,39.9 -4.09,56.27l-691.54 0c6.82,62.74 36.14,112.53 87.97,149.36 51.84,36.82 121.4,55.24 208.69,55.24 55.93,0 110.83,-5.12 164.71,-15.35 53.87,-10.23 97.86,-22.84 131.96,-37.85l40.92 247.57c-16.37,8.18 -38.19,16.36 -65.47,24.55 -27.28,8.18 -57.63,15.34 -91.05,21.48 -33.41,6.14 -69.22,11.25 -107.41,15.35 -38.19,4.09 -76.38,6.13 -114.58,6.13 -96.84,0 -181.07,-14.32 -252.67,-42.96 -71.61,-28.65 -130.95,-67.86 -178.01,-117.65 -47.05,-49.78 -81.84,-108.77 -104.34,-176.97 -22.51,-68.2 -33.76,-141.86 -33.76,-220.97zm716.1 -116.62c-1.37,-25.92 -5.8,-51.15 -13.3,-75.7 -7.5,-24.56 -19.1,-46.38 -34.78,-65.48 -15.69,-19.09 -35.47,-34.78 -59.34,-47.05 -23.87,-12.28 -53.54,-18.42 -89,-18.42 -34.1,0 -63.42,5.8 -87.98,17.39 -24.55,11.6 -45.01,26.94 -61.38,46.04 -16.36,19.09 -28.98,41.26 -37.85,66.49 -8.86,25.24 -15.34,50.81 -19.43,76.73l403.06 0z"/>
  <path id="4" class="fil2" d="M23733.55 2694.51c57.28,0 109.8,5.8 157.54,17.39 47.74,11.6 84.56,22.85 110.48,33.76l-59.33 243.47c-27.28,-12.27 -56.95,-21.48 -89,-27.62 -32.06,-6.13 -61.73,-9.2 -89.01,-9.2 -36.82,0 -67.85,5.11 -93.09,15.34 -25.23,10.23 -45.01,24.21 -59.33,41.94 -14.32,17.74 -24.55,38.88 -30.69,63.43 -6.14,24.55 -9.21,51.15 -9.21,79.79l0 53.2 376.46 0 0 253.7 -376.46 0 0 822.49 -304.85 0 0 -1133.48c0,-139.13 39.21,-249.61 117.64,-331.45 78.43,-81.84 194.71,-122.76 348.85,-122.76z"/>
  <path id="5" class="fil2" d="M17946.46 6575.75c-16.02,-49.44 -32.73,-99.91 -51.15,-151.74 -18.07,-51.84 -36.14,-103.67 -54.21,-155.16l-553.79 0c-17.73,51.83 -35.8,103.66 -53.87,155.5 -17.73,52.17 -34.44,102.3 -50.13,151.4l-331.45 0c53.54,-152.77 104,-293.94 151.74,-423.52 48.08,-129.58 94.8,-251.66 140.84,-366.23 45.69,-114.58 90.7,-223.36 135.37,-326.34 44.33,-102.98 90.71,-203.57 138.45,-301.78l302.46 0c46.72,98.21 92.76,198.8 137.77,301.78 45.35,102.98 90.7,211.76 136.74,326.34 46.03,114.57 92.75,236.65 140.83,366.23 48.08,129.58 98.55,270.75 152.08,423.52l-341.68 0zm-383.62 -1096.65c-7.16,20.46 -17.39,48.76 -31.37,83.88 -13.64,35.47 -29.33,76.39 -46.72,123.11 -17.39,46.37 -37.17,97.52 -58.65,153.44 -21.82,55.59 -43.65,114.24 -66.15,175.62l405.44 0c-21.48,-61.38 -42.62,-120.37 -63.08,-176.3 -20.12,-55.92 -39.56,-107.07 -57.97,-153.79 -18.07,-46.37 -34.1,-87.29 -48.08,-122.76 -13.64,-35.46 -24.89,-63.08 -33.42,-83.2z"/>
  <path id="6" class="fil2" d="M19098.36 5769.63c-27.28,-6.82 -59.34,-13.98 -96.16,-21.48 -36.83,-7.5 -76.39,-11.26 -118.67,-11.26 -19.1,0 -41.94,1.71 -68.54,5.12 -26.6,3.41 -46.72,7.16 -60.36,11.25l0 822.49 -304.85 0 0 -1018.9c54.56,-19.1 119.01,-37.17 193.35,-54.22 74.33,-17.05 157.2,-25.58 248.58,-25.58 16.37,0 36.15,1.03 59.34,3.07 23.18,2.05 46.37,4.78 69.56,8.19 23.19,3.41 46.38,7.5 69.56,12.27 23.19,4.78 42.97,10.57 59.34,17.39l-51.15 251.66z"/>
  <path id="7" class="fil2" d="M19241.58 6037.65c0,-77.74 12.62,-151.06 37.85,-219.94 25.23,-68.88 61.72,-128.9 109.46,-180.05 47.74,-51.15 105.71,-91.72 173.91,-121.73 68.2,-30.01 145.95,-45.01 233.24,-45.01 57.29,0 109.8,5.11 157.54,15.34 47.74,10.23 94.12,24.89 139.13,43.99l-63.42 243.47c-28.65,-10.91 -60.02,-20.46 -94.12,-28.64 -34.1,-8.19 -72.29,-12.28 -114.58,-12.28 -90.02,0 -157.2,27.96 -201.53,83.89 -44.33,55.92 -66.49,129.58 -66.49,220.96 0,96.85 20.8,171.87 62.4,225.06 41.6,53.2 114.24,79.8 217.9,79.8 36.83,0 76.38,-3.41 118.67,-10.23 42.28,-6.82 81.16,-17.73 116.62,-32.74l42.97 249.61c-35.47,15.01 -79.8,27.96 -132.99,38.88 -53.2,10.91 -111.85,16.36 -175.96,16.36 -98.21,0 -182.77,-14.66 -253.7,-43.98 -70.93,-29.33 -129.24,-69.23 -174.93,-119.7 -45.7,-50.46 -79.12,-110.14 -100.26,-179.02 -21.14,-68.88 -31.71,-143.56 -31.71,-224.04z"/>
  <path id="8" class="fil2" d="M20315.72 6575.75l0 -1538.58 304.85 -49.11 0 515.59c20.46,-6.82 46.72,-13.3 78.77,-19.44 32.06,-6.13 63.09,-9.2 93.09,-9.2 87.3,0 159.93,11.93 217.9,35.8 57.97,23.87 104.35,57.63 139.13,101.28 34.78,43.65 59.33,95.48 73.66,155.49 14.32,60.02 21.48,126.86 21.48,200.51l0 607.66 -304.85 0 0 -570.83c0,-98.21 -12.62,-167.77 -37.85,-208.69 -25.24,-40.92 -71.96,-61.38 -140.15,-61.38 -27.28,0 -52.86,2.39 -76.73,7.16 -23.87,4.77 -45.35,9.89 -64.45,15.34l0 818.4 -304.85 0z"/>
  <path id="9" class="fil2" d="M21825.66 6575.75l-304.85 0 0 -1076.19 304.85 0 0 1076.19zm28.65 -1387.18c0,55.92 -18.08,99.91 -54.22,131.97 -36.15,32.05 -78.77,48.08 -127.88,48.08 -49.1,0 -91.73,-16.03 -127.87,-48.08 -36.15,-32.06 -54.22,-76.05 -54.22,-131.97 0,-55.92 18.07,-99.91 54.22,-131.97 36.14,-32.05 78.77,-48.08 127.87,-48.08 49.11,0 91.73,16.03 127.88,48.08 36.14,32.06 54.22,76.05 54.22,131.97z"/>
  <path id="10" class="fil2" d="M22101.87 5231.53l304.85 -49.1 0 317.13 366.23 0 0 253.7 -366.23 0 0 378.51c0,64.11 11.25,115.26 33.76,153.45 22.51,38.19 67.86,57.29 136.06,57.29 32.73,0 66.49,-3.07 101.28,-9.21 34.78,-6.14 66.49,-14.66 95.13,-25.57l42.97 237.33c-36.83,15 -77.75,27.96 -122.76,38.87 -45.01,10.92 -100.25,16.37 -165.72,16.37 -83.21,0 -152.09,-11.25 -206.65,-33.76 -54.56,-22.5 -98.21,-53.87 -130.94,-94.11 -32.74,-40.24 -55.59,-89 -68.54,-146.29 -12.96,-57.29 -19.44,-120.71 -19.44,-190.28l0 -904.33z"/>
  <path id="11" class="fil2" d="M22928.45 6045.84c0,-95.48 14.66,-179.03 43.99,-250.64 29.32,-71.6 67.86,-131.28 115.6,-179.02 47.74,-47.74 102.64,-83.88 164.7,-108.44 62.06,-24.55 125.83,-36.82 191.3,-36.82 152.77,0 273.48,46.71 362.14,140.15 88.66,93.43 132.99,230.85 132.99,412.26 0,17.73 -0.68,37.17 -2.05,58.31 -1.36,21.15 -2.73,39.9 -4.09,56.27l-691.54 0c6.82,62.74 36.14,112.53 87.97,149.36 51.84,36.82 121.4,55.24 208.69,55.24 55.93,0 110.83,-5.12 164.71,-15.35 53.87,-10.23 97.86,-22.84 131.96,-37.85l40.92 247.57c-16.37,8.18 -38.19,16.36 -65.47,24.55 -27.28,8.18 -57.63,15.34 -91.05,21.48 -33.41,6.14 -69.22,11.25 -107.41,15.35 -38.19,4.09 -76.38,6.13 -114.58,6.13 -96.84,0 -181.07,-14.32 -252.67,-42.96 -71.61,-28.65 -130.95,-67.86 -178.01,-117.65 -47.05,-49.78 -81.84,-108.77 -104.34,-176.97 -22.51,-68.2 -33.76,-141.86 -33.76,-220.97zm716.1 -116.62c-1.37,-25.92 -5.8,-51.15 -13.3,-75.7 -7.5,-24.56 -19.1,-46.38 -34.78,-65.48 -15.69,-19.09 -35.47,-34.78 -59.34,-47.05 -23.87,-12.28 -53.54,-18.42 -89,-18.42 -34.1,0 -63.42,5.8 -87.98,17.39 -24.55,11.6 -45.01,26.94 -61.38,46.04 -16.36,19.09 -28.98,41.26 -37.85,66.49 -8.86,25.24 -15.34,50.81 -19.43,76.73l403.06 0z"/>
  <path id="12" class="fil2" d="M24123.31 6037.65c0,-77.74 12.62,-151.06 37.85,-219.94 25.23,-68.88 61.72,-128.9 109.46,-180.05 47.74,-51.15 105.71,-91.72 173.91,-121.73 68.2,-30.01 145.95,-45.01 233.24,-45.01 57.29,0 109.8,5.11 157.54,15.34 47.74,10.23 94.12,24.89 139.13,43.99l-63.42 243.47c-28.65,-10.91 -60.02,-20.46 -94.12,-28.64 -34.1,-8.19 -72.29,-12.28 -114.58,-12.28 -90.02,0 -157.2,27.96 -201.53,83.89 -44.33,55.92 -66.49,129.58 -66.49,220.96 0,96.85 20.8,171.87 62.4,225.06 41.6,53.2 114.24,79.8 217.9,79.8 36.83,0 76.38,-3.41 118.67,-10.23 42.28,-6.82 81.16,-17.73 116.62,-32.74l42.97 249.61c-35.47,15.01 -79.8,27.96 -132.99,38.88 -53.2,10.91 -111.85,16.36 -175.96,16.36 -98.21,0 -182.77,-14.66 -253.7,-43.98 -70.93,-29.33 -129.24,-69.23 -174.93,-119.7 -45.7,-50.46 -79.12,-110.14 -100.26,-179.02 -21.14,-68.88 -31.71,-143.56 -31.71,-224.04z"/>
  <path id="13" class="fil2" d="M25187.22 5231.53l304.85 -49.1 0 317.13 366.23 0 0 253.7 -366.23 0 0 378.51c0,64.11 11.25,115.26 33.76,153.45 22.51,38.19 67.86,57.29 136.06,57.29 32.73,0 66.49,-3.07 101.28,-9.21 34.78,-6.14 66.49,-14.66 95.13,-25.57l42.97 237.33c-36.83,15 -77.75,27.96 -122.76,38.87 -45.01,10.92 -100.25,16.37 -165.72,16.37 -83.21,0 -152.09,-11.25 -206.65,-33.76 -54.56,-22.5 -98.21,-53.87 -130.94,-94.11 -32.74,-40.24 -55.59,-89 -68.54,-146.29 -12.96,-57.29 -19.44,-120.71 -19.44,-190.28l0 -904.33z"/>
  <polygon class="fil2" points="3478.12,6261.07 3478.12,6577.06 1367.97,6577.06 1367.97,2865.55 1732.16,2865.55 1732.16,6261.07 "/>
  <path id="1" class="fil2" d="M4833.12 6336.05c339.2,0 581.99,-70.51 728.38,-212.44 146.39,-141.03 219.58,-332.05 219.58,-572.17 0,-157.99 -29.45,-288.31 -88.37,-391.86 -58.91,-104.43 -139.25,-187.45 -241,-249.93 -101.76,-63.38 -219.59,-108.01 -353.48,-134.79 -133.89,-26.77 -275.82,-40.16 -425.78,-40.16l-53.56 0 0 -289.21 123.18 0c96.41,0 195.49,-9.82 297.25,-29.46 101.76,-19.64 194.59,-56.23 278.49,-108.9 83.91,-53.56 153.53,-124.96 208.88,-213.33 55.34,-89.27 83.01,-203.52 83.01,-341.88 0,-116.93 -19.64,-217.8 -58.91,-301.7 -39.28,-83.02 -91.94,-149.96 -158,-199.95 -66.05,-49.09 -142.82,-85.69 -230.29,-108.9 -87.48,-23.21 -179.42,-34.81 -275.82,-34.81 -192.81,0 -342.77,26.78 -449.88,80.34 -107.11,53.55 -194.59,103.54 -262.43,149.96l-149.96 -273.15c35.7,-24.99 81.23,-53.55 136.57,-85.69 55.34,-32.13 120.5,-62.48 195.48,-91.04 74.98,-28.57 158,-52.67 249.04,-72.31 91.05,-19.63 190.13,-29.45 297.25,-29.45 185.66,0 345.44,23.21 479.33,69.62 133.89,46.42 245.47,111.58 334.73,195.49 89.27,83.01 155.32,182.98 198.17,299.02 42.84,116.04 64.26,241.9 64.26,376.69 0,217.8 -58.02,395.43 -174.06,532.89 -116.04,136.57 -265.1,235.65 -447.2,296.35 99.97,24.99 197.27,63.38 291.89,115.15 94.62,51.77 179.41,117.82 254.39,198.16 74.98,81.23 135.68,178.52 182.1,292.78 46.41,114.25 69.62,248.15 69.62,401.68 0,157.99 -27.67,302.59 -83.01,434.7 -55.34,132.11 -137.46,247.26 -246.36,346.34 -108.9,98.18 -247.26,174.95 -415.07,230.29 -167.81,55.34 -364.19,83.02 -589.13,83.02 -117.83,0 -225.83,-8.04 -324.02,-24.11 -98.19,-16.06 -184.77,-34.81 -259.75,-56.23 -74.98,-21.42 -138.36,-42.85 -190.13,-64.27 -51.77,-21.42 -90.15,-39.27 -115.15,-53.56l91.05 -310.63c21.42,14.29 57.13,32.14 107.11,53.56 49.99,21.42 109.8,41.95 179.42,61.59 69.62,19.64 148.17,36.6 235.65,50.88 87.48,14.28 182.99,21.42 286.53,21.42z"/>
  <path class="fil0" d="M11604.66 0c1302.79,0 2482.3,528.1 3336.1,1381.9 853.8,853.8 1381.9,2033.3 1381.9,3336.1 0,1302.8 -528.1,2482.3 -1381.9,3336.1 -853.8,853.8 -2033.31,1381.9 -3336.1,1381.9 -1302.8,0 -2482.3,-528.1 -3336.1,-1381.9 -853.8,-853.8 -1381.9,-2033.3 -1381.9,-3336.1 0,-1302.8 528.1,-2482.3 1381.9,-3336.1 853.8,-853.8 2033.3,-1381.9 3336.1,-1381.9z"/>
  <circle class="fil3" cx="11604.66" cy="4718" r="4318"/>
  <path class="fil0" d="M12699.02 2830.55c238.91,137.94 320.77,443.44 182.83,682.35 -137.94,238.92 -443.43,320.77 -682.35,182.83 -238.91,-137.93 -320.77,-443.43 -182.83,-682.34 137.94,-238.92 443.43,-320.77 682.35,-182.84zm-3350.67 881.07c-238.9,137.95 -544.41,56.1 -682.35,-182.81 -137.94,-238.91 -56.06,-544.42 182.85,-682.36 154.55,-89.23 344.96,-89.23 499.5,0.01 564.57,325.95 1286.49,132.51 1612.45,-432.06 103.6,-179.44 158.15,-382.98 158.16,-590.2 0,-178.46 95.21,-343.37 249.76,-432.6 238.92,-137.93 544.41,-56.08 682.34,182.83 137.94,238.91 56.09,544.41 -182.84,682.34 -176.67,101.98 -323.34,248.68 -425.34,425.34 -320.9,555.8 -130.46,1266.52 425.35,1587.41 555.8,320.89 1266.51,130.47 1587.41,-425.35 101.99,-176.65 155.7,-377.03 155.68,-581.02 -0.01,-275.88 223.63,-499.54 499.5,-499.54 275.86,0 499.51,223.66 499.51,499.54 0,178.45 -95.21,343.36 -249.76,432.57 -564.57,325.95 -758.01,1047.88 -432.05,1612.45 103.6,179.44 252.59,328.46 432.05,432.06 154.55,89.25 249.76,254.16 249.76,432.61 0,275.88 -223.63,499.51 -499.5,499.51 -275.87,0 -499.52,-223.63 -499.51,-499.52 0.02,-203.99 -53.68,-404.36 -155.68,-581.02 -320.89,-555.8 -1031.61,-746.23 -1587.42,-425.34 -555.8,320.89 -746.23,1031.6 -425.34,1587.41 102,176.66 248.67,323.36 425.35,425.34 238.92,137.92 320.79,443.43 182.85,682.34 -137.92,238.92 -443.44,320.76 -682.36,182.83 -154.55,-89.23 -249.75,-254.14 -249.73,-432.58 -0.01,-651.91 -528.49,-1180.4 -1180.4,-1180.4 -207.2,0 -410.75,54.53 -590.21,158.12 -154.56,89.24 -344.98,89.24 -499.53,0.01 -238.91,-137.94 -320.78,-443.43 -182.84,-682.34 137.93,-238.91 443.44,-320.78 682.36,-182.83 176.64,102.02 377.02,155.69 581.01,155.7 641.79,0 1162.07,-520.29 1162.07,-1162.08 0,-641.78 -520.27,-1162.06 -1162.06,-1162.07 -204,0.01 -404.37,53.68 -581.04,155.7zm830.78 573.8c238.91,137.94 320.77,443.44 182.83,682.35 -137.94,238.92 -443.43,320.77 -682.34,182.83 -238.91,-137.93 -320.77,-443.43 -182.84,-682.34 137.94,-238.92 443.44,-320.77 682.35,-182.84zm2519.87 1454.85c238.92,137.94 320.77,443.44 182.84,682.35 -137.94,238.92 -443.43,320.77 -682.35,182.83 -238.91,-137.93 -320.77,-443.43 -182.83,-682.34 137.94,-238.92 443.43,-320.77 682.34,-182.84z"/>
 </g>
</svg>
