<?xml version="1.0" encoding="UTF-8"?>
<!DOCTYPE svg PUBLIC "-//W3C//DTD SVG 1.1//EN" "http://www.w3.org/Graphics/SVG/1.1/DTD/svg11.dtd">
<!-- Creator: CorelDRAW 2018 (64-Bit) -->
<svg xmlns="http://www.w3.org/2000/svg" xml:space="preserve" width="268.801mm" height="94.36mm" version="1.1" style="shape-rendering:geometricPrecision; text-rendering:geometricPrecision; image-rendering:optimizeQuality; fill-rule:evenodd; clip-rule:evenodd"
viewBox="0 0 71965.41 25262.74"
 xmlns:xlink="http://www.w3.org/1999/xlink">
 <defs>
  <style type="text/css">
   <![CDATA[
    .fil3 {fill:#50AFE1}
    .fil1 {fill:#38264C}
    .fil0 {fill:#2077B0}
    .fil2 {fill:#FEFEFE;fill-rule:nonzero}
   ]]>
  </style>
 </defs>
 <g id="Layer_x0020_1">
  <metadata id="CorelCorpID_0Corel-Layer"/>
  <g id="_1832238640">
   <g>
    <path class="fil0" d="M68555.45 5377.73l-65145.55 0c-1433.71,0 -2606.73,1173.02 -2606.73,2606.75l0 9293.75c0,1433.73 1173.02,2606.75 2606.73,2606.75l65145.55 0c1433.76,0 2606.78,-1173.02 2606.78,-2606.75l0 -9293.75c0,-1433.73 -1173.02,-2606.75 -2606.78,-2606.75z"/>
    <path id="1" class="fil1" d="M68555.45 5377.73l-65145.55 0c-1433.71,0 -2606.73,1173.02 -2606.73,2606.75l0 9293.75c0,1433.73 1173.02,2606.75 2606.73,2606.75l65145.55 0c1433.76,0 2606.78,-1173.02 2606.78,-2606.75l0 -9293.75c0,-1433.73 -1173.02,-2606.75 -2606.78,-2606.75zm-65145.55 -803.18l65145.55 0c938.57,0 1791.28,383.39 2408.93,1001.03 617.62,617.62 1001.03,1470.33 1001.03,2408.9l0 9293.75c0,938.57 -383.41,1791.28 -1001.03,2408.9 -617.65,617.65 -1470.36,1001.03 -2408.93,1001.03l-65145.55 0c-938.57,0 -1791.26,-383.41 -2408.88,-1001.03 -617.65,-617.65 -1001.03,-1470.33 -1001.03,-2408.9l0 -9293.75c0,-938.57 383.39,-1791.26 1001.03,-2408.9 617.62,-617.62 1470.3,-1001.03 2408.88,-1001.03z"/>
   </g>
   <polygon class="fil2" points="4291.4,17608.58 4291.4,7671.86 10026.89,7671.86 10026.89,8517.85 5266.43,8517.85 5266.43,11973.48 9510.69,11973.48 9510.69,12805.12 5266.43,12805.12 5266.43,16762.59 10399.7,16762.59 10399.7,17608.58 "/>
   <path id="1" class="fil2" d="M16723.07 16174.71c-95.61,-238.97 -231.82,-554.44 -411.04,-946.36 -176.86,-391.93 -375.22,-819.7 -597.46,-1283.3 -219.86,-463.62 -446.89,-941.6 -676.31,-1433.87 -231.8,-492.3 -451.68,-953.54 -661.98,-1383.69 -212.68,-430.16 -399.07,-807.76 -561.58,-1132.75 -164.89,-325.02 -284.38,-554.44 -360.87,-688.27 -124.25,1194.89 -222.24,2492.54 -293.94,3892.97 -71.7,1400.4 -136.22,2870.12 -193.57,4409.15l-960.69 0c86.02,-1806.68 184.01,-3536.89 293.94,-5190.61 109.93,-1653.72 246.15,-3235.75 408.66,-4746.11l860.31 0c286.76,477.97 595.05,1030 920.07,1656.13 324.99,626.11 647.63,1276.15 970.24,1950.04 320.23,673.92 630.9,1338.29 932.01,1993.09 303.5,654.81 568.76,1245.07 798.2,1770.83 229.42,-525.76 494.68,-1116.02 798.18,-1770.83 301.11,-654.81 611.78,-1319.17 932.01,-1993.09 322.64,-673.9 645.25,-1323.94 970.24,-1950.04 327.4,-626.13 633.31,-1178.16 920.07,-1656.13l817.32 0c162.51,1510.36 298.73,3092.38 408.66,4746.11 109.93,1653.72 207.89,3383.94 293.94,5190.61l-989.39 0c-57.35,-1539.03 -121.87,-3008.74 -193.57,-4409.15 -71.7,-1400.43 -169.66,-2698.07 -293.94,-3892.97 -76.46,133.84 -195.95,363.25 -358.46,688.27 -162.51,324.99 -348.93,702.6 -559.23,1132.75 -210.3,430.16 -430.16,891.4 -659.57,1383.69 -229.42,492.27 -454.07,970.24 -673.92,1433.87 -219.86,463.6 -418.19,891.37 -595.05,1283.3 -176.83,391.93 -313.05,707.39 -408.66,946.36l-874.64 0z"/>
   <g>
    <path class="fil3" d="M37182.51 1070.91c6384.68,0 11560.46,5175.78 11560.46,11560.46 0,6384.68 -5175.78,11560.46 -11560.46,11560.46 -6384.68,0 -11560.46,-5175.78 -11560.46,-11560.46 0,-6384.68 5175.78,-11560.46 11560.46,-11560.46z"/>
    <path id="1" class="fil1" d="M37182.51 0c3487.95,0 6645.79,1413.87 8931.65,3699.72 2285.85,2285.88 3699.72,5443.72 3699.72,8931.65 0,3487.98 -1413.89,6645.82 -3699.72,8931.65 -2285.83,2285.83 -5443.67,3699.72 -8931.65,3699.72 -3487.92,0 -6645.76,-1413.87 -8931.65,-3699.72 -2285.85,-2285.85 -3699.72,-5443.7 -3699.72,-8931.65 0,-3487.92 1413.87,-6645.76 3699.72,-8931.65 2285.88,-2285.85 5443.72,-3699.72 8931.65,-3699.72zm0 1070.91c6384.68,0 11560.46,5175.78 11560.46,11560.46 0,6384.68 -5175.78,11560.46 -11560.46,11560.46 -6384.68,0 -11560.46,-5175.78 -11560.46,-11560.46 0,-6384.68 5175.78,-11560.46 11560.46,-11560.46z"/>
   </g>
   <g>
    <path class="fil1" d="M41141.66 9992.33c-374.84,-2569.35 -1514.77,-3949.65 -2765.03,-4633.96 -298.84,318.06 -723.26,516.74 -1194.12,516.74 -702.14,0 -1301.05,-441.72 -1534.18,-1062.42 -1185.52,141.07 -2513.45,806.98 -3698.17,2528.58 3016.54,-973.62 6081.96,-26.37 9191.5,2651.06zm-3959.15 -7203.23c799.51,0 1447.63,648.11 1447.63,1447.63 0,799.51 -648.11,1447.63 -1447.63,1447.63 -799.49,0 -1447.63,-648.11 -1447.63,-1447.63 0,-799.51 648.14,-1447.63 1447.63,-1447.63z"/>
    <path class="fil1" d="M36876.61 7883.12c-2412.52,-960.04 -4177.88,-662.97 -5395.61,77.61 125.99,417.84 85.86,884.73 -149.55,1292.51 -351.1,608.09 -1033.11,905.88 -1687.19,797.43 -470.61,1097.23 -557.86,2580.22 340.74,4467 665.09,-3099.18 3018.14,-5280.33 6891.62,-6634.55zm-8217.75 -172.87c399.77,-692.4 1285.12,-929.63 1977.49,-529.89 692.4,399.77 929.63,1285.12 529.89,1977.49 -399.77,692.4 -1285.12,929.63 -1977.49,529.89 -692.4,-399.77 -929.63,-1285.12 -529.89,-1977.49z"/>
    <path class="fil1" d="M32917.46 10522.16c-2037.7,1609.28 -2663.11,3286.67 -2630.61,4711.57 424.88,99.78 809.15,367.99 1044.59,775.77 351.07,608.09 267.94,1347.6 -153.03,1859.85 714.94,956.19 1955.61,1773.24 4038.91,1938.43 -2351.42,-2125.57 -3063.82,-5253.96 -2299.86,-9285.61zm-4258.6 7030.33c-399.74,-692.37 -162.51,-1577.72 529.89,-1977.49 692.37,-399.74 1577.72,-162.51 1977.49,529.89 399.74,692.37 162.51,1577.72 -529.89,1977.49 -692.37,399.74 -1577.72,162.51 -1977.49,-529.89z"/>
    <path class="fil1" d="M33223.36 15270.41c374.84,2569.35 1514.77,3949.65 2765.03,4633.96 298.86,-318.06 723.26,-516.74 1194.12,-516.74 702.17,0 1301.05,441.72 1534.18,1062.42 1185.52,-141.07 2513.45,-806.98 3698.17,-2528.58 -3016.54,973.62 -6081.96,26.37 -9191.5,-2651.06zm3959.15 7203.23c-799.49,0 -1447.63,-648.11 -1447.63,-1447.63 0,-799.51 648.14,-1447.63 1447.63,-1447.63 799.51,0 1447.63,648.11 1447.63,1447.63 0,799.51 -648.11,1447.63 -1447.63,1447.63z"/>
    <path class="fil1" d="M37488.42 17379.62c2412.54,960.04 4177.88,663 5395.61,-77.61 -125.99,-417.84 -85.86,-884.73 149.58,-1292.51 351.07,-608.09 1033.08,-905.88 1687.16,-797.43 470.61,-1097.23 557.86,-2580.22 -340.71,-4467 -665.09,3099.18 -3018.17,5280.33 -6891.65,6634.55zm8217.75 172.87c-399.77,692.4 -1285.12,929.63 -1977.49,529.89 -692.4,-399.77 -929.63,-1285.12 -529.89,-1977.49 399.77,-692.4 1285.12,-929.63 1977.49,-529.89 692.4,399.77 929.63,1285.12 529.89,1977.49z"/>
    <path class="fil1" d="M41447.57 14740.58c2037.7,-1609.28 2663.11,-3286.67 2630.61,-4711.57 -424.86,-99.78 -809.15,-367.99 -1044.56,-775.77 -351.1,-608.09 -267.97,-1347.6 153.01,-1859.85 -714.94,-956.19 -1955.61,-1773.24 -4038.91,-1938.43 2351.42,2125.59 3063.82,5253.96 2299.86,9285.61zm4258.6 -7030.33c399.74,692.37 162.51,1577.72 -529.89,1977.49 -692.37,399.74 -1577.72,162.51 -1977.49,-529.89 -399.74,-692.37 -162.51,-1577.72 529.89,-1977.49 692.37,-399.74 1577.72,-162.51 1977.49,529.89z"/>
   </g>
   <path class="fil2" d="M55122.54 16963.33c908.13,0 1558.15,-188.77 1950.07,-568.76 391.93,-377.58 587.88,-888.99 587.88,-1531.85 0,-422.98 -78.85,-771.88 -236.59,-1049.12 -157.72,-279.59 -372.81,-501.85 -645.22,-669.13 -272.44,-169.69 -587.9,-289.17 -946.36,-360.87 -358.46,-71.67 -738.45,-107.52 -1139.93,-107.52l-143.39 0 0 -774.29 329.79 0c258.12,0 523.38,-26.29 795.82,-78.87 272.44,-52.58 520.97,-150.54 745.59,-291.55 224.65,-143.39 411.04,-334.55 559.23,-571.14 148.16,-239 222.24,-544.88 222.24,-915.31 0,-313.05 -52.58,-583.11 -157.72,-807.73 -105.16,-222.27 -246.15,-401.48 -423.01,-535.32 -176.83,-131.43 -382.37,-229.42 -616.55,-291.55 -234.21,-62.14 -480.36,-93.2 -738.45,-93.2 -516.2,0 -917.69,71.7 -1204.45,215.09 -286.76,143.37 -520.97,277.2 -702.6,401.48l-401.48 -731.3c95.58,-66.91 217.47,-143.37 365.64,-229.42 148.16,-86.02 322.61,-167.28 523.35,-243.74 200.74,-76.49 423.01,-141.01 666.75,-193.59 243.77,-52.55 509.03,-78.85 795.82,-78.85 497.06,0 924.84,62.14 1283.3,186.39 358.46,124.28 657.19,298.73 896.16,523.38 239,222.24 415.83,489.89 530.55,800.56 114.69,310.67 172.04,647.63 172.04,1008.5 0,583.11 -155.34,1058.67 -466.01,1426.69 -310.67,365.64 -709.74,630.9 -1197.28,793.41 267.65,66.91 528.15,169.69 781.47,308.29 253.32,138.6 480.33,315.44 681.07,530.53 200.74,217.47 363.25,477.95 487.53,783.85 124.25,305.88 186.39,664.36 186.39,1075.41 0,422.98 -74.08,810.12 -222.24,1163.81 -148.16,353.69 -368.02,661.98 -659.57,927.25 -291.55,262.85 -661.98,468.39 -1111.26,616.55 -449.27,148.16 -975.04,222.27 -1577.26,222.27 -315.46,0 -604.61,-21.53 -867.49,-64.55 -262.88,-43 -494.68,-93.2 -695.42,-150.54 -200.74,-57.35 -370.43,-114.72 -509.03,-172.07 -138.6,-57.35 -241.36,-105.14 -308.29,-143.39l243.77 -831.64c57.35,38.26 152.95,86.05 286.76,143.39 133.84,57.35 293.96,112.31 480.36,164.89 186.39,52.58 396.69,97.99 630.9,136.22 234.21,38.23 489.91,57.35 767.12,57.35z"/>
   <path id="1" class="fil2" d="M63639.71 7585.84c1405.19,0 2451.93,267.65 3140.17,802.97 688.27,535.32 1032.38,1295.26 1032.38,2279.86 0,563.97 -100.37,1044.32 -301.11,1441.04 -200.74,396.69 -487.5,716.92 -860.31,960.69 -372.81,243.74 -829.26,420.6 -1369.34,530.53 -540.09,109.93 -1149.49,164.89 -1828.18,164.89l-1347.85 0 0 3842.77 -975.04 0 0 -9750.3c344.14,-95.61 748,-164.89 1211.63,-207.92 463.62,-43.02 896.16,-64.52 1297.65,-64.52zm43.02 845.99c-363.25,0 -671.54,11.94 -924.84,35.82 -253.32,23.91 -470.8,45.41 -652.42,64.55l0 4387.62 1233.12 0c525.76,0 1001.33,-31.06 1426.72,-93.2 425.36,-62.14 788.62,-176.83 1089.73,-344.14 301.11,-167.28 532.91,-399.07 695.42,-695.42 162.51,-296.32 243.77,-673.92 243.77,-1132.75 0,-439.72 -88.43,-802.97 -265.26,-1089.73 -176.86,-286.79 -411.04,-513.82 -702.6,-681.1 -291.55,-167.28 -623.72,-284.38 -996.53,-351.28 -372.81,-66.93 -755.18,-100.37 -1147.1,-100.37z"/>
  </g>
 </g>
</svg>
