<?xml version="1.0" encoding="UTF-8"?>
<!DOCTYPE svg PUBLIC "-//W3C//DTD SVG 1.1//EN" "http://www.w3.org/Graphics/SVG/1.1/DTD/svg11.dtd">
<!-- Creator: CorelDRAW 2018 (64-Bit) -->
<svg xmlns="http://www.w3.org/2000/svg" xml:space="preserve" width="318.477mm" height="94.36mm" version="1.1" style="shape-rendering:geometricPrecision; text-rendering:geometricPrecision; image-rendering:optimizeQuality; fill-rule:evenodd; clip-rule:evenodd"
viewBox="0 0 9659765.32 2862045.74"
 xmlns:xlink="http://www.w3.org/1999/xlink">
 <defs>
  <style type="text/css">
   <![CDATA[
    .fil3 {fill:#50AFE1}
    .fil1 {fill:#38264C}
    .fil0 {fill:#2077B0}
    .fil2 {fill:#FEFEFE;fill-rule:nonzero}
   ]]>
  </style>
 </defs>
 <g id="Layer_x0020_1">
  <metadata id="CorelCorpID_0Corel-Layer"/>
  <g id="_1345296016">
   <g>
    <path class="fil0" d="M9273449.8 609249.34l-8887134.29 0c-162429.29,0 -295322.11,132892.83 -295322.11,295322.11l0 1052899.8c0,162429.29 132892.83,295322.11 295322.11,295322.11l8887134.29 0c162426.25,0 295322.11,-132892.83 295322.11,-295322.11l0 -1052899.8c0,-162429.29 -132895.86,-295322.11 -295322.11,-295322.11z"/>
    <path id="1" class="fil1" d="M9273449.8 609249.34l-8887134.29 0c-162429.29,0 -295322.11,132892.83 -295322.11,295322.11l0 1052899.8c0,162429.29 132892.83,295322.11 295322.11,295322.11l8887134.29 0c162426.25,0 295322.11,-132892.83 295322.11,-295322.11l0 -1052899.8c0,-162429.29 -132895.86,-295322.11 -295322.11,-295322.11zm-8887134.29 -90993.4l8887134.29 0c106331.85,0 202933.48,43437.22 272907.41,113408.11 69970.89,69973.92 113408.11,166578.58 113408.11,272907.41l0 1052899.8c0,106331.85 -43437.22,202933.48 -113408.11,272907.41 -69973.92,69970.89 -166575.55,113408.11 -272907.41,113408.11l-8887134.29 0c-106331.85,0 -202933.48,-43434.18 -272907.41,-113408.11 -69970.89,-69970.89 -113408.11,-166575.55 -113408.11,-272907.41l0 -1052899.8c0,-106328.82 43437.22,-202933.48 113408.11,-272907.41 69973.92,-69970.89 166578.58,-113408.11 272907.41,-113408.11z"/>
   </g>
   <polygon class="fil2" points="5934589.55,1611917.75 5934589.55,1176426.37 6226171.83,1176426.37 6226171.83,1258751.13 6032619.77,1258751.13 6032619.77,1349868.89 6204806.58,1349868.89 6204806.58,1432190.62 6032619.77,1432190.62 6032619.77,1611917.75 "/>
   <path id="1" class="fil2" d="M6591907.67 1446015.55c0,25975.58 -3770.16,49749.12 -11310.48,71326.69 -7540.32,21574.54 -18432.23,40009.8 -32675.73,55299.72 -14246.53,15289.92 -31316.9,27125.13 -51217.15,35505.62 -19900.26,8377.46 -42208.81,12569.22 -66925.65,12569.22 -24298.27,0 -46397.53,-4191.76 -66297.79,-12569.22 -19900.26,-8380.49 -36970.62,-20215.7 -51214.12,-35505.62 -14246.53,-15289.92 -25347.73,-33725.19 -33306.62,-55299.72 -7961.92,-21577.57 -11941.37,-45351.11 -11941.37,-71326.69 0,-25972.55 4085.6,-49642.97 12253.78,-71008.22 8171.21,-21368.28 19481.69,-39591.23 33934.47,-54671.87 14455.82,-15083.67 31632.34,-26812.72 51529.56,-35193.21 19900.26,-8377.46 41580.95,-12566.19 65042.08,-12566.19 23879.7,0 45769.68,4188.73 65669.94,12566.19 19897.22,8380.49 36970.62,20109.54 51214.12,35193.21 14243.5,15080.64 25347.73,33303.58 33306.62,54671.87 7958.89,21365.25 11938.33,45035.67 11938.33,71008.22zm-95518.81 0c0,-28905.57 -5759.88,-51632.69 -17279.65,-68181.35 -11519.76,-16548.67 -27965.3,-24823 -49330.56,-24823 -21365.25,0 -37913.92,8274.33 -49646,24823 -11729.05,16548.67 -17595.09,39275.78 -17595.09,68181.35 0,28908.6 5866.04,51845.01 17595.09,68812.24 11732.08,16967.24 28280.75,25450.85 49646,25450.85 21365.25,0 37810.79,-8483.62 49330.56,-25450.85 11519.76,-16967.24 17279.65,-39903.64 17279.65,-68812.24z"/>
   <path id="2" class="fil2" d="M6946333.03 1600607.27c-15917.78,4607.3 -36445.89,8902.19 -61584.33,12881.63 -25135.41,3979.44 -51529.56,5969.17 -79179.42,5969.17 -28068.43,0 -51423.4,-3770.16 -70067.95,-11310.48 -18641.51,-7540.32 -33409.74,-18119.82 -44301.65,-31735.46 -10891.91,-13615.65 -18644.55,-29848.87 -23251.85,-48702.7 -4607.3,-18850.8 -6912.47,-39588.2 -6912.47,-62212.19l0 -184125.14 93632.21 0 0 172814.67c0,30164.31 3982.48,51948.13 11941.37,65354.49 7958.89,13406.36 22833.28,20109.54 44617.1,20109.54 6703.18,0 13824.93,-315.44 21365.25,-943.3 7540.32,-627.85 14243.5,-1361.87 20109.54,-2199.01l0 -255136.39 93632.21 0 0 319235.18z"/>
   <path id="3" class="fil2" d="M7034311.52 1292685.6c15920.81,-4610.33 36448.92,-8905.22 61584.33,-12884.67 25135.41,-3979.44 51529.56,-5969.17 79179.42,-5969.17 28068.43,0 51426.44,3667.03 70067.95,10998.07 18644.55,7331.03 33409.74,17698.22 44304.69,31104.58 10891.91,13406.36 18641.51,29327.17 23248.81,47759.4 4610.33,18435.26 6912.47,38963.37 6912.47,61584.33l0 186639.6 -93632.21 0 0 -175326.08c0,-30164.31 -3979.44,-51529.56 -11938.33,-64098.78 -7961.92,-12569.22 -22833.28,-18853.83 -44620.13,-18853.83 -6703.18,0 -13824.93,315.44 -21365.25,943.3 -7540.32,627.85 -14243.5,1361.87 -20109.54,2199.01l0 255136.39 -93632.21 0 0 -319232.15z"/>
   <path id="4" class="fil2" d="M7484252.65 1444131.99c0,28905.57 6493.9,52157.42 19481.69,69752.51 12987.79,17595.09 32257.16,26394.15 57814.17,26394.15 8377.46,0 16130.1,-315.44 23251.85,-943.3 7121.75,-627.85 12984.76,-1361.87 17595.09,-2199.01l0 -170300.21c-5866.04,-3770.16 -13512.52,-6912.47 -22936.4,-9426.92 -9426.92,-2511.42 -18956.96,-3770.16 -28593.16,-3770.16 -44407.81,0 -66613.24,30164.31 -66613.24,90492.94zm211775.01 157103.14c-8377.46,2514.45 -18013.66,4922.74 -28905.57,7224.88 -10891.91,2305.17 -22308.55,4294.89 -34249.92,5972.2 -11938.33,1674.28 -24088.99,3036.15 -36445.89,4082.57 -12359.94,1049.46 -24195.15,1571.15 -35505.62,1571.15 -27231.29,0 -51529.56,-3979.44 -72897.85,-11938.33 -21365.25,-7958.89 -39378.91,-19375.53 -54040.98,-34249.92 -14665.1,-14871.35 -25872.46,-32885.01 -33622.06,-54040.98 -7749.6,-21159 -11625.92,-44932.54 -11625.92,-71326.69 0,-26812.72 3351.59,-51004.83 10054.77,-72582.4 6703.18,-21574.54 16339.38,-39903.64 28908.6,-54984.28 12566.19,-15083.67 27962.27,-26603.44 46188.25,-34562.33 18222.94,-7961.92 39066.5,-11941.37 62527.63,-11941.37 12984.76,0 24610.68,1258.74 34874.74,3770.16 10264.06,2514.45 20634.27,6075.33 31107.61,10682.63l0 -149559.79 93632.21 -15083.67 0 476966.17z"/>
   <path id="5" class="fil2" d="M7910317.11 1546563.26c9217.63,0 18013.66,-209.28 26394.15,-627.85 8377.46,-418.57 15080.64,-1049.46 20106.51,-1886.6l0 -71011.25c-3770.16,-837.14 -9423.88,-1674.28 -16964.2,-2511.42 -7543.35,-840.17 -14455.82,-1258.74 -20740.43,-1258.74 -8796.03,0 -17070.36,524.73 -24819.97,1571.15 -7752.64,1046.42 -14558.94,3039.18 -20424.99,5969.17 -5866.04,2933.02 -10473.34,6912.47 -13824.93,11941.37 -3351.59,5025.87 -5025.87,11310.48 -5025.87,18850.8 0,14665.1 4922.74,24823 14765.2,30479.76 9845.49,5656.76 23358.01,8483.62 40534.53,8483.62zm-7540.32 -273987.19c27649.86,0 50689.39,3142.31 69124.65,9423.88 18432.23,6284.61 33200.46,15292.96 44301.65,27022.01 11104.23,11732.08 18956.96,25975.58 23567.29,42733.53 4607.3,16757.95 6912.47,35399.47 6912.47,55927.58l0 194807.77c-13406.36,2933.02 -32050.91,6390.77 -55930.61,10370.21 -23879.7,3979.44 -52785.27,5969.17 -86719.74,5969.17 -21365.25,0 -40740.78,-1886.6 -58126.58,-5656.76 -17388.84,-3770.16 -32363.32,-9948.61 -44932.54,-18538.39 -12569.22,-8586.74 -22205.42,-19794.1 -28908.6,-33619.03 -6703.18,-13824.93 -10054.77,-30792.17 -10054.77,-50901.71 0,-19269.37 3876.32,-35608.75 11625.92,-49015.11 7752.64,-13406.36 18119.82,-24088.99 31107.61,-32050.91 12987.79,-7958.89 27859.15,-13718.77 44617.1,-17279.65 16757.95,-3560.88 34143.76,-5341.31 52157.42,-5341.31 12150.65,0 22939.44,521.7 32363.32,1571.15 9426.92,1046.42 17073.39,2408.29 22936.4,4082.57l0 -8796.03c0,-15920.81 -4816.58,-28696.29 -14452.79,-38332.49 -9636.2,-9636.2 -26391.12,-14455.82 -50270.82,-14455.82 -15920.81,0 -31632.34,1152.58 -47131.55,3457.75 -15502.24,2305.17 -28908.6,5550.6 -40219.08,9739.33l-11941.37 -75409.26c5447.47,-1674.28 12256.81,-3454.72 20424.99,-5341.31 8168.17,-1883.56 17070.36,-3560.88 26706.56,-5025.87 9636.2,-1468.03 19797.13,-2723.74 30479.76,-3770.16 10682.63,-1049.46 21468.38,-1571.15 32363.32,-1571.15z"/>
   <path id="6" class="fil2" d="M8128376.73 1199050.36l93632.21 -15080.64 0 97402.37 112486.04 0 0 77923.71 -112486.04 0 0 116256.2c0,19690.97 3457.75,35399.47 10370.21,47131.55 6912.47,11729.05 20843.55,17595.09 41790.24,17595.09 10054.77,0 20421.95,-943.3 31104.58,-2826.86 10682.63,-1886.6 20424.99,-4504.17 29221.01,-7855.76l13197.08 72894.81c-11310.48,4610.33 -23879.7,8589.78 -37704.63,11941.37 -13824.93,3351.59 -30792.17,5025.87 -50901.71,5025.87 -25553.98,0 -46709.95,-3454.72 -63467.9,-10367.18 -16757.95,-6912.47 -30164.31,-16548.67 -40219.08,-28908.6 -10054.77,-12356.9 -17073.39,-27334.42 -21052.84,-44929.51 -3979.44,-17598.12 -5969.17,-37076.78 -5969.17,-58445.06l0 -277757.35z"/>
   <path id="7" class="fil2" d="M8504167.34 1611917.75l-93632.21 0 0 -330545.66 93632.21 0 0 330545.66zm8799.06 -426064.46c0,17176.52 -5550.6,30689.04 -16654.83,40534.53 -11101.19,9845.49 -24192.11,14765.2 -39275.78,14765.2 -15080.64,0 -28171.56,-4919.71 -39275.78,-14765.2 -11101.19,-9845.49 -16651.79,-23358.01 -16651.79,-40534.53 0,-17176.52 5550.6,-30686.01 16651.79,-40531.49 11104.23,-9845.49 24195.15,-14768.23 39275.78,-14768.23 15083.67,0 28174.59,4922.74 39275.78,14768.23 11104.23,9845.49 16654.83,23354.97 16654.83,40531.49z"/>
   <path id="8" class="fil2" d="M8901323.2 1446015.55c0,25975.58 -3770.16,49749.12 -11310.48,71326.69 -7540.32,21574.54 -18432.23,40009.8 -32675.73,55299.72 -14246.53,15289.92 -31316.9,27125.13 -51217.15,35505.62 -19900.26,8377.46 -42208.81,12569.22 -66925.65,12569.22 -24298.27,0 -46397.53,-4191.76 -66297.79,-12569.22 -19900.26,-8380.49 -36970.62,-20215.7 -51214.12,-35505.62 -14246.53,-15289.92 -25347.73,-33725.19 -33306.62,-55299.72 -7961.92,-21577.57 -11941.37,-45351.11 -11941.37,-71326.69 0,-25972.55 4085.6,-49642.97 12253.78,-71008.22 8171.21,-21368.28 19481.69,-39591.23 33934.47,-54671.87 14455.82,-15083.67 31632.34,-26812.72 51529.56,-35193.21 19900.26,-8377.46 41580.95,-12566.19 65042.08,-12566.19 23879.7,0 45769.68,4188.73 65669.94,12566.19 19897.22,8380.49 36970.62,20109.54 51214.12,35193.21 14243.5,15080.64 25347.73,33303.58 33306.62,54671.87 7958.89,21365.25 11938.33,45035.67 11938.33,71008.22zm-95518.81 0c0,-28905.57 -5759.88,-51632.69 -17279.65,-68181.35 -11519.76,-16548.67 -27965.3,-24823 -49330.56,-24823 -21365.25,0 -37913.92,8274.33 -49646,24823 -11729.05,16548.67 -17595.09,39275.78 -17595.09,68181.35 0,28908.6 5866.04,51845.01 17595.09,68812.24 11732.08,16967.24 28280.75,25450.85 49646,25450.85 21365.25,0 37810.79,-8483.62 49330.56,-25450.85 11519.76,-16967.24 17279.65,-39903.64 17279.65,-68812.24z"/>
   <path id="9" class="fil2" d="M8973593.19 1292685.6c15920.81,-4610.33 36448.92,-8905.22 61584.33,-12884.67 25135.41,-3979.44 51529.56,-5969.17 79179.42,-5969.17 28068.43,0 51426.44,3667.03 70067.95,10998.07 18644.55,7331.03 33409.74,17698.22 44304.69,31104.58 10891.91,13406.36 18641.51,29327.17 23248.81,47759.4 4610.33,18435.26 6912.47,38963.37 6912.47,61584.33l0 186639.6 -93632.21 0 0 -175326.08c0,-30164.31 -3979.44,-51529.56 -11938.33,-64098.78 -7961.92,-12569.22 -22833.28,-18853.83 -44620.13,-18853.83 -6703.18,0 -13824.93,315.44 -21365.25,943.3 -7540.32,627.85 -14243.5,1361.87 -20109.54,2199.01l0 255136.39 -93632.21 0 0 -319232.15z"/>
   <polygon class="fil2" points="486177.74,1994896.84 486177.74,869153.79 1135958.57,869153.79 1135958.57,964997.14 596640.69,964997.14 596640.69,1356490.18 1077477.11,1356490.18 1077477.11,1450707.78 596640.69,1450707.78 596640.69,1899053.49 1178194.68,1899053.49 1178194.68,1994896.84 "/>
   <path id="1" class="fil2" d="M1894576.61 1832452.39c-10831.25,-27073.57 -26263.73,-62812.74 -46567.39,-107214.49 -20036.75,-44401.75 -42509.08,-92864.83 -67686.96,-145386.22 -24907.93,-52524.42 -50628.73,-106674.6 -76619.48,-162444.45 -26260.7,-55772.89 -51171.66,-108027.36 -74996.76,-156760.4 -24095.05,-48733.03 -45211.59,-91512.06 -63622.59,-128331.03 -18680.95,-36822 -32217.73,-62812.74 -40883.33,-77975.28 -14076.68,135370.88 -25177.87,282382.85 -33300.55,441038.94 -8122.68,158653.06 -15432.48,325158.85 -21929.41,499517.37l-108837.21 0c9745.39,-204680.55 20846.59,-400698.54 33300.55,-588050.91 12453.96,-187352.38 27886.44,-366582.08 46297.44,-537692.13l97466.06 0c32487.68,54150.17 67413.98,116689.94 104235.97,187625.36 36818.96,70932.39 73371.01,144576.38 109920.03,220922.88 36279.07,76349.53 71475.32,151616.24 105588.74,225800.12 34383.37,74183.89 64435.46,141054.94 90429.24,200619.22 25990.75,-59564.28 56042.84,-126435.33 90426.21,-200619.22 34113.43,-74183.89 69309.67,-149450.59 105588.74,-225800.12 36552.05,-76346.5 73101.06,-149990.49 109920.03,-220922.88 37091.94,-70935.42 71748.3,-133475.19 104235.97,-187625.36l92594.88 0c18411,171110.06 33843.48,350339.76 46297.44,537692.13 12453.96,187352.38 23552.13,383370.36 33300.55,588050.91l-112088.7 0c-6496.93,-174358.52 -13806.73,-340864.31 -21929.41,-499517.37 -8122.68,-158656.09 -19220.84,-305668.06 -33300.55,-441038.94 -8662.57,15162.53 -22199.36,41153.28 -40610.35,77975.28 -18411,36818.96 -39530.57,79597.99 -63355.67,128331.03 -23825.11,48733.03 -48733.03,100987.51 -74723.78,156760.4 -25990.75,55769.85 -51441.6,109920.03 -76349.53,162444.45 -24907.93,52521.39 -47377.23,100984.48 -67413.98,145386.22 -20033.71,44401.75 -35466.19,80140.92 -46297.44,107214.49l-99088.78 0z"/>
   <g>
    <path class="fil3" d="M4212451.49 121324.53c723327.77,0 1309698.34,586370.57 1309698.34,1309698.34 0,723327.77 -586370.57,1309698.34 -1309698.34,1309698.34 -723327.77,0 -1309698.34,-586370.57 -1309698.34,-1309698.34 0,-723327.77 586370.57,-1309698.34 1309698.34,-1309698.34z"/>
    <path id="1" class="fil1" d="M4212451.49 0c395154.01,0 752909.72,160178.72 1011876.94,419145.93 258967.22,258970.25 419145.93,616725.97 419145.93,1011876.94 0,395154.01 -160178.72,752909.72 -419145.93,1011876.94 -258967.22,258967.22 -616722.93,419145.93 -1011876.94,419145.93 -395150.97,0 -752906.69,-160178.72 -1011876.94,-419145.93 -258967.22,-258967.22 -419145.93,-616722.93 -419145.93,-1011876.94 0,-395150.97 160178.72,-752906.69 419145.93,-1011876.94 258970.25,-258967.22 616725.97,-419145.93 1011876.94,-419145.93zm0 121324.53c723327.77,0 1309698.34,586370.57 1309698.34,1309698.34 0,723327.77 -586370.57,1309698.34 -1309698.34,1309698.34 -723327.77,0 -1309698.34,-586370.57 -1309698.34,-1309698.34 0,-723327.77 586370.57,-1309698.34 1309698.34,-1309698.34z"/>
   </g>
   <g>
    <path class="fil1" d="M4660988.29 1132042.82c-42466.62,-291084.85 -171610.52,-447460.04 -313253.88,-524986.42 -33855.61,36033.39 -81939.56,58542.12 -135282.92,58542.12 -79546.43,0 -147397.18,-50043.34 -173809.53,-120363.04 -134309.29,15981.47 -284751.71,91424.1 -418970.01,286465.42 341746.95,-110302.2 689032.36,-2987.62 1041316.34,300341.92zm-448536.8 -816062.18c90577.86,0 164003.47,73425.61 164003.47,164003.47 0,90577.86 -73425.61,164003.47 -164003.47,164003.47 -90574.83,0 -164003.47,-73425.61 -164003.47,-164003.47 0,-90577.86 73428.64,-164003.47 164003.47,-164003.47z"/>
    <path class="fil1" d="M4177795.14 893088.09c-273316.88,-108764.41 -473317.34,-75108.99 -611275.46,8793 14273.83,47337.8 9727.19,100232.26 -16942.97,146429.61 -39776.25,68891.1 -117041.78,102628.42 -191143.77,90341.28 -53316.07,124306.08 -63200.98,292316.3 38602.43,506071.93 75348.6,-351110.17 341928.93,-598214.88 780759.77,-751635.82zm-930998.97 -19584.81c45290.45,-78442.38 145592.47,-105318.79 224031.82,-60031.38 78442.38,45290.45 105318.79,145592.47 60031.38,224031.82 -45290.45,78442.38 -145592.47,105318.79 -224031.82,60031.38 -78442.38,-45290.45 -105318.79,-145592.47 -60031.38,-224031.82z"/>
    <path class="fil1" d="M3729258.34 1192068.14c-230853.29,182317.41 -301706.82,372351.06 -298024.62,533779.42 48135.51,11304.41 91669.78,41690.14 118342.98,87887.49 39773.22,68891.1 30355.4,152671.76 -17337.28,210704.32 80996.26,108327.64 221553.76,200892.2 457572.44,219606.5 -266395.31,-240807.97 -347103.42,-595227.26 -260553.53,-1051977.73zm-482462.17 796474.33c-45287.42,-78439.34 -18411,-178741.37 60031.38,-224031.82 78439.34,-45287.42 178741.37,-18411 224031.82,60031.38 45287.42,78439.34 18411,178741.37 -60031.38,224031.82 -78439.34,45287.42 -178741.37,18411 -224031.82,-60031.38z"/>
    <path class="fil1" d="M3763914.69 1730002.92c42466.62,291084.85 171610.52,447460.04 313253.88,524986.42 33858.64,-36033.39 81939.56,-58542.12 135282.92,-58542.12 79549.46,0 147397.18,50043.34 173809.53,120363.04 134309.29,-15981.47 284751.71,-91424.1 418970.01,-286465.42 -341746.95,110302.2 -689032.36,2987.62 -1041316.34,-300341.92zm448536.8 816062.18c-90574.83,0 -164003.47,-73425.61 -164003.47,-164003.47 0,-90577.86 73428.64,-164003.47 164003.47,-164003.47 90577.86,0 164003.47,73425.61 164003.47,164003.47 0,90577.86 -73425.61,164003.47 -164003.47,164003.47z"/>
    <path class="fil1" d="M4247107.85 1968957.65c273319.91,108764.41 473317.34,75112.02 611275.46,-8793 -14273.83,-47337.8 -9727.19,-100232.26 16946,-146429.61 39773.22,-68891.1 117038.74,-102628.42 191140.74,-90341.28 53316.07,-124306.08 63200.98,-292316.3 -38599.4,-506071.93 -75348.6,351110.17 -341931.97,598214.88 -780762.8,751635.82zm930998.97 19584.81c-45290.45,78442.38 -145592.47,105318.79 -224031.82,60031.38 -78442.38,-45290.45 -105318.79,-145592.47 -60031.38,-224031.82 45290.45,-78442.38 145592.47,-105318.79 224031.82,-60031.38 78442.38,45290.45 105318.79,145592.47 60031.38,224031.82z"/>
    <path class="fil1" d="M4695644.65 1669977.61c230853.29,-182317.41 301706.82,-372351.06 298024.62,-533779.42 -48132.48,-11304.41 -91669.78,-41690.14 -118339.95,-87887.49 -39776.25,-68891.1 -30358.43,-152671.76 17334.24,-210704.32 -80996.26,-108327.64 -221553.76,-200892.2 -457572.44,-219606.5 266395.31,240811 347103.42,595227.26 260553.53,1051977.73zm482462.17 -796474.33c45287.42,78439.34 18411,178741.37 -60031.38,224031.82 -78439.34,45287.42 -178741.37,18411 -224031.82,-60031.38 -45287.42,-78439.34 -18411,-178741.37 60031.38,-224031.82 78439.34,-45287.42 178741.37,-18411 224031.82,60031.38z"/>
   </g>
  </g>
 </g>
</svg>
